<?xml version="1.0" encoding="UTF-8"?>
<svg width="700pt" height="700pt" version="1.1" viewBox="0 0 700 700" xmlns="http://www.w3.org/2000/svg">
 <g>
  <path d="m338.33 490h-256.67c-6.4375 0-11.664 5.2266-11.664 11.668v46.668c0 6.4375 5.2266 11.664 11.668 11.664h256.67c6.4414 0 11.668-5.2266 11.668-11.668v-46.668c-0.003906-6.4375-5.2305-11.664-11.672-11.664z"/>
  <path d="m630 221.67c0 19.328-15.672 35-35 35s-35-15.672-35-35c0-19.332 15.672-35 35-35s35 15.668 35 35"/>
  <path d="m326.67 385c0-6.4414-5.2266-11.668-11.668-11.668h-35v-23.332c0-38.594-31.406-70-70-70s-70 31.406-70 70v23.332h-35c-6.4414 0-11.668 5.2266-11.668 11.668v81.668h233.33zm-163.34 46.668c0 6.4375-5.2266 11.664-11.664 11.664-6.4414 0-11.668-5.2266-11.668-11.664v-23.332c0-6.4414 5.2266-11.668 11.668-11.668 6.4375 0 11.664 5.2266 11.664 11.664zm46.668 0c0 6.4375-5.2266 11.664-11.668 11.664-6.4375 0-11.664-5.2266-11.664-11.664v-23.332c0-6.4414 5.2266-11.668 11.664-11.668 6.4414 0 11.668 5.2266 11.668 11.664z"/>
  <path d="m570.52 320.69c0.48828-1.8672 1.1445-3.6641 1.1445-5.6914 0-2.0781-0.67578-3.9219-1.1914-5.832l23.148-29.309c-18.035-0.42188-33.902-9.125-44.309-22.375l-10.359 36.238c-4.457 1.9844-7.8867 5.4609-10.359 9.6133l-26.93-0.003907c-6.4414 0-11.668 5.2266-11.668 11.668v46.668c0 6.4414 5.2266 11.668 11.668 11.668 6.4414 0 11.668-5.2266 11.668-11.668l-0.003907-35h15.262c4.082 6.8359 11.223 11.668 19.738 11.668 2.0078 0 3.8281-0.67578 5.6914-1.1445l12.812 12.809-26.738 26.738c-4.5508 4.5508-4.5508 11.945 0 16.496 2.2617 2.2891 5.25 3.4336 8.2344 3.4336 2.9883 0 5.9727-1.1445 8.2617-3.4062l35-35c4.5508-4.5508 4.5508-11.945 0-16.496z"/>
  <path d="m290.88 98.258-101.78 160.98c6.7422-1.5625 13.695-2.5664 20.906-2.5664 37.172 0 69.066 21.98 84.07 53.504l76.977-171.12c-3.125 0.37109-6.1602 0.95312-9.3789 0.95312-30.453 0-56.77-16.965-70.793-41.742z"/>
  <path d="m420 58.332c0 32.219-26.117 58.336-58.332 58.336-32.219 0-58.336-26.117-58.336-58.336 0-32.215 26.117-58.332 58.336-58.332 32.215 0 58.332 26.117 58.332 58.332"/>
  <path d="m567.42 170.59-125.3-100.19c-3.7812 25.246-19.039 46.527-40.414 58.66l135.73 84.934c2.5195-18.809 13.93-34.699 29.984-43.402z"/>
 </g>
</svg>
