<?xml version="1.0" encoding="UTF-8"?>
<svg width="700pt" height="700pt" version="1.1" viewBox="0 0 700 700" xmlns="http://www.w3.org/2000/svg" xmlns:xlink="http://www.w3.org/1999/xlink">
 <defs>
  <symbol id="x" overflow="visible">
   <path d="m3.6562-0.21875c-0.1875 0.09375-0.38672 0.16797-0.59375 0.21875-0.19922 0.050781-0.40625 0.078125-0.625 0.078125-0.66797 0-1.1992-0.17969-1.5938-0.54688-0.38672-0.375-0.57812-0.87891-0.57812-1.5156 0-0.64453 0.19141-1.1484 0.57812-1.5156 0.39453-0.375 0.92578-0.5625 1.5938-0.5625 0.21875 0 0.42578 0.027344 0.625 0.078125 0.20703 0.054687 0.40625 0.125 0.59375 0.21875v0.82812c-0.1875-0.125-0.375-0.21875-0.5625-0.28125-0.17969-0.0625-0.37109-0.09375-0.57812-0.09375-0.36719 0-0.65625 0.12109-0.875 0.35938-0.21094 0.23047-0.3125 0.55469-0.3125 0.96875 0 0.40625 0.10156 0.73047 0.3125 0.96875 0.21875 0.23047 0.50781 0.34375 0.875 0.34375 0.20703 0 0.39844-0.023437 0.57812-0.078125 0.1875-0.0625 0.375-0.16016 0.5625-0.29688z"/>
  </symbol>
  <symbol id="d" overflow="visible">
   <path d="m2.6875-2.1719c-0.085938-0.039063-0.16797-0.070313-0.25-0.09375-0.085938-0.019531-0.16797-0.03125-0.25-0.03125-0.25 0-0.44531 0.085937-0.57812 0.25-0.125 0.15625-0.1875 0.38281-0.1875 0.67188v1.375h-0.96875v-2.9844h0.96875v0.48438c0.11328-0.19531 0.25-0.33594 0.40625-0.42188 0.16406-0.09375 0.35938-0.14062 0.57812-0.14062h0.10938c0.039063 0 0.09375 0.007812 0.15625 0.015625z"/>
  </symbol>
  <symbol id="a" overflow="visible">
   <path d="m3.4375-1.5v0.26562h-2.2344c0.03125 0.23047 0.11328 0.40234 0.25 0.51562 0.13281 0.10547 0.32812 0.15625 0.57812 0.15625 0.20703 0 0.41406-0.023438 0.625-0.078125 0.20703-0.0625 0.42188-0.15625 0.64062-0.28125v0.73438c-0.21875 0.09375-0.44531 0.16406-0.67188 0.20312-0.23047 0.039062-0.45312 0.0625-0.67188 0.0625-0.54297 0-0.96484-0.13281-1.2656-0.40625-0.30469-0.28125-0.45312-0.67188-0.45312-1.1719 0-0.47656 0.14453-0.85938 0.4375-1.1406 0.30078-0.28125 0.70703-0.42188 1.2188-0.42188 0.46875 0 0.84375 0.14062 1.125 0.42188s0.42188 0.66406 0.42188 1.1406zm-0.96875-0.32812c0-0.17578-0.058594-0.31641-0.17188-0.42188-0.10547-0.11328-0.24219-0.17188-0.40625-0.17188-0.1875 0-0.33984 0.054687-0.45312 0.15625-0.11719 0.10547-0.1875 0.25-0.21875 0.4375z"/>
  </symbol>
  <symbol id="f" overflow="visible">
   <path d="m1.7969-1.3438c-0.19922 0-0.35156 0.039062-0.45312 0.10938-0.09375 0.0625-0.14062 0.16406-0.14062 0.29688 0 0.11719 0.035156 0.21094 0.10938 0.28125 0.082031 0.0625 0.19531 0.09375 0.34375 0.09375 0.17578 0 0.32812-0.0625 0.45312-0.1875s0.1875-0.28516 0.1875-0.48438v-0.10938zm1.4688-0.35938v1.7031h-0.96875v-0.4375c-0.125 0.17969-0.27344 0.30859-0.4375 0.39062-0.15625 0.082031-0.35156 0.125-0.57812 0.125-0.3125 0-0.57031-0.085938-0.76562-0.26562-0.1875-0.1875-0.28125-0.42188-0.28125-0.70312 0-0.35156 0.11719-0.61328 0.35938-0.78125 0.23828-0.16406 0.61719-0.25 1.1406-0.25h0.5625v-0.0625c0-0.15625-0.0625-0.26562-0.1875-0.32812-0.11719-0.070312-0.29688-0.10938-0.54688-0.10938-0.21094 0-0.40234 0.023437-0.57812 0.0625-0.17969 0.042969-0.33984 0.10156-0.48438 0.17188v-0.71875c0.19531-0.050781 0.39844-0.085938 0.60938-0.10938 0.20703-0.03125 0.41406-0.046875 0.625-0.046875 0.53906 0 0.92969 0.10938 1.1719 0.32812 0.23828 0.21094 0.35938 0.55469 0.35938 1.0312z"/>
  </symbol>
  <symbol id="c" overflow="visible">
   <path d="m1.5-3.8438v0.85938h0.98438v0.67188h-0.98438v1.2812c0 0.13672 0.023438 0.23047 0.078125 0.28125 0.0625 0.042969 0.17578 0.0625 0.34375 0.0625h0.48438v0.6875h-0.8125c-0.38672 0-0.65625-0.078125-0.8125-0.23438s-0.23438-0.42188-0.23438-0.79688v-1.2812h-0.46875v-0.67188h0.46875v-0.85938z"/>
  </symbol>
  <symbol id="l" overflow="visible">
   <path d="m2.5-2.5469v-1.6094h0.95312v4.1562h-0.95312v-0.4375c-0.13672 0.17969-0.28125 0.30859-0.4375 0.39062-0.15625 0.082031-0.33984 0.125-0.54688 0.125-0.375 0-0.68359-0.14453-0.92188-0.4375-0.23047-0.28906-0.34375-0.67188-0.34375-1.1406 0-0.45703 0.11328-0.83203 0.34375-1.125 0.23828-0.28906 0.54688-0.4375 0.92188-0.4375 0.19531 0 0.375 0.042969 0.53125 0.125 0.16406 0.085938 0.31641 0.21484 0.45312 0.39062zm-0.64062 1.9375c0.20703 0 0.36328-0.070313 0.46875-0.21875 0.11328-0.15625 0.17188-0.37891 0.17188-0.67188 0-0.28125-0.058594-0.49219-0.17188-0.64062-0.10547-0.15625-0.26172-0.23438-0.46875-0.23438-0.19922 0-0.35547 0.078125-0.46875 0.23438-0.10547 0.14844-0.15625 0.35938-0.15625 0.64062 0 0.29297 0.050781 0.51562 0.15625 0.67188 0.11328 0.14844 0.26953 0.21875 0.46875 0.21875z"/>
  </symbol>
  <symbol id="k" overflow="visible">
   <path d="m2.0469-0.60938c0.20703 0 0.36328-0.070313 0.46875-0.21875 0.11328-0.15625 0.17188-0.37891 0.17188-0.67188 0-0.28125-0.058594-0.49219-0.17188-0.64062-0.10547-0.15625-0.26172-0.23438-0.46875-0.23438-0.19922 0-0.35547 0.078125-0.46875 0.23438-0.10547 0.14844-0.15625 0.35938-0.15625 0.64062 0 0.29297 0.050781 0.51562 0.15625 0.67188 0.11328 0.14844 0.26953 0.21875 0.46875 0.21875zm-0.625-1.9375c0.125-0.17578 0.26562-0.30469 0.42188-0.39062 0.16406-0.082031 0.35156-0.125 0.5625-0.125 0.36328 0 0.66406 0.14844 0.90625 0.4375 0.23828 0.29297 0.35938 0.66797 0.35938 1.125 0 0.46875-0.12109 0.85156-0.35938 1.1406-0.24219 0.29297-0.54297 0.4375-0.90625 0.4375-0.21094 0-0.39844-0.042969-0.5625-0.125-0.15625-0.082031-0.29688-0.21094-0.42188-0.39062v0.4375h-0.96875v-4.1562h0.96875z"/>
  </symbol>
  <symbol id="e" overflow="visible">
   <path d="m0.0625-2.9844h0.95312l0.8125 2.0156 0.6875-2.0156h0.95312l-1.2656 3.2656c-0.125 0.33203-0.27344 0.56641-0.4375 0.70312-0.16797 0.13281-0.39062 0.20312-0.67188 0.20312h-0.54688v-0.64062h0.29688c0.16406 0 0.28516-0.027344 0.35938-0.078125 0.070313-0.054688 0.12891-0.14062 0.17188-0.26562l0.03125-0.09375z"/>
  </symbol>
  <symbol id="j" overflow="visible">
   <path d="m-0.046875-3.9844h1.125l0.90625 1.4219 0.90625-1.4219h1.125l-1.5156 2.3125v1.6719h-1.0312v-1.6719z"/>
  </symbol>
  <symbol id="b" overflow="visible">
   <path d="m1.875-2.375c-0.21094 0-0.37109 0.078125-0.48438 0.23438-0.10547 0.14844-0.15625 0.35938-0.15625 0.64062 0 0.29297 0.050781 0.51562 0.15625 0.67188 0.11328 0.14844 0.27344 0.21875 0.48438 0.21875 0.20703 0 0.36719-0.070313 0.48438-0.21875 0.11328-0.15625 0.17188-0.37891 0.17188-0.67188 0-0.28125-0.058594-0.49219-0.17188-0.64062-0.11719-0.15625-0.27734-0.23438-0.48438-0.23438zm0-0.6875c0.51953 0 0.92188 0.14062 1.2031 0.42188 0.28906 0.27344 0.4375 0.65234 0.4375 1.1406 0 0.5-0.14844 0.89062-0.4375 1.1719-0.28125 0.27344-0.68359 0.40625-1.2031 0.40625-0.51172 0-0.91406-0.13281-1.2031-0.40625-0.29297-0.28125-0.4375-0.67188-0.4375-1.1719 0-0.48828 0.14453-0.86719 0.4375-1.1406 0.28906-0.28125 0.69141-0.42188 1.2031-0.42188z"/>
  </symbol>
  <symbol id="w" overflow="visible">
   <path d="m2.5-0.5c-0.13672 0.16797-0.28125 0.29297-0.4375 0.375-0.15625 0.085938-0.33984 0.125-0.54688 0.125-0.36719 0-0.66797-0.14062-0.90625-0.42188-0.24219-0.28906-0.35938-0.66016-0.35938-1.1094 0-0.44531 0.11719-0.8125 0.35938-1.0938 0.23828-0.28906 0.53906-0.4375 0.90625-0.4375 0.20703 0 0.39062 0.042969 0.54688 0.125 0.15625 0.085938 0.30078 0.21484 0.4375 0.39062v-0.4375h0.95312v2.6875c0 0.47656-0.15234 0.84375-0.45312 1.0938-0.30469 0.25781-0.74609 0.39062-1.3281 0.39062-0.17969 0-0.35547-0.015625-0.53125-0.046875-0.17969-0.03125-0.35547-0.078125-0.53125-0.14062v-0.73438c0.16406 0.09375 0.32812 0.16016 0.48438 0.20312 0.16406 0.050781 0.33203 0.078125 0.5 0.078125 0.3125 0 0.53906-0.070313 0.6875-0.20312 0.14453-0.13672 0.21875-0.34766 0.21875-0.64062zm-0.64062-1.875c-0.19922 0-0.35547 0.074219-0.46875 0.21875-0.10547 0.14844-0.15625 0.35547-0.15625 0.625 0 0.27344 0.050781 0.48047 0.15625 0.625 0.11328 0.14844 0.26953 0.21875 0.46875 0.21875 0.19531 0 0.35156-0.070312 0.46875-0.21875 0.11328-0.14453 0.17188-0.35156 0.17188-0.625 0-0.26953-0.058594-0.47656-0.17188-0.625-0.11719-0.14453-0.27344-0.21875-0.46875-0.21875z"/>
  </symbol>
  <symbol id="i" overflow="visible">
   <path d="m0.45312-2.9844h0.96875v2.9844h-0.96875zm0-1.1719h0.96875v0.78125h-0.96875z"/>
  </symbol>
  <symbol id="v" overflow="visible">
   <path d="m2.9219-0.71875h-1.6094l-0.25 0.71875h-1.0312l1.4688-3.9844h1.2344l1.4688 3.9844h-1.0312zm-1.3594-0.75h1.0938l-0.53125-1.5781z"/>
  </symbol>
  <symbol id="u" overflow="visible">
   <path d="m1.4219-0.4375v1.5781h-0.96875v-4.125h0.96875v0.4375c0.125-0.17578 0.26562-0.30469 0.42188-0.39062 0.16406-0.082031 0.35156-0.125 0.5625-0.125 0.36328 0 0.66406 0.14844 0.90625 0.4375 0.23828 0.29297 0.35938 0.66797 0.35938 1.125 0 0.46875-0.12109 0.85156-0.35938 1.1406-0.24219 0.29297-0.54297 0.4375-0.90625 0.4375-0.21094 0-0.39844-0.042969-0.5625-0.125-0.15625-0.082031-0.29688-0.21094-0.42188-0.39062zm0.625-1.9375c-0.19922 0-0.35547 0.078125-0.46875 0.23438-0.10547 0.14844-0.15625 0.35938-0.15625 0.64062 0 0.29297 0.050781 0.51562 0.15625 0.67188 0.11328 0.14844 0.26953 0.21875 0.46875 0.21875 0.20703 0 0.36328-0.070313 0.46875-0.21875 0.11328-0.15625 0.17188-0.37891 0.17188-0.67188 0-0.28125-0.058594-0.49219-0.17188-0.64062-0.10547-0.15625-0.26172-0.23438-0.46875-0.23438z"/>
  </symbol>
  <symbol id="h" overflow="visible">
   <path d="m0.45312-4.1562h0.96875v4.1562h-0.96875z"/>
  </symbol>
  <symbol id="g" overflow="visible">
   <path d="m3.4688-1.8281v1.8281h-0.96875v-1.3906c0-0.25781-0.007812-0.4375-0.015625-0.53125-0.011719-0.10156-0.03125-0.17578-0.0625-0.21875-0.03125-0.0625-0.085937-0.10938-0.15625-0.14062-0.0625-0.039062-0.13281-0.0625-0.20312-0.0625-0.21094 0-0.37109 0.078125-0.48438 0.23438-0.10547 0.15625-0.15625 0.37109-0.15625 0.64062v1.4688h-0.96875v-2.9844h0.96875v0.4375c0.13281-0.17578 0.28516-0.30469 0.45312-0.39062 0.16406-0.082031 0.34375-0.125 0.53125-0.125 0.34375 0 0.60156 0.10938 0.78125 0.32812 0.1875 0.21094 0.28125 0.51172 0.28125 0.90625z"/>
  </symbol>
  <symbol id="t" overflow="visible">
   <path d="m2.4219-4.1562v0.625h-0.51562c-0.13672 0-0.23438 0.027344-0.29688 0.078125-0.054687 0.054687-0.078125 0.13672-0.078125 0.25v0.21875h0.82812v0.67188h-0.82812v2.3125h-0.95312v-2.3125h-0.46875v-0.67188h0.46875v-0.21875c0-0.32031 0.085937-0.5625 0.26562-0.71875 0.1875-0.15625 0.47266-0.23438 0.85938-0.23438z"/>
  </symbol>
  <symbol id="s" overflow="visible">
   <path d="m3.2344-2.5c0.11328-0.17578 0.25391-0.3125 0.42188-0.40625 0.16406-0.10156 0.35156-0.15625 0.5625-0.15625 0.33203 0 0.58594 0.10938 0.76562 0.32812 0.1875 0.21094 0.28125 0.51172 0.28125 0.90625v1.8281h-0.96875v-1.5625c0.007813-0.019531 0.015625-0.039062 0.015625-0.0625v-0.10938c0-0.21875-0.03125-0.375-0.09375-0.46875s-0.16406-0.14062-0.29688-0.14062c-0.1875 0-0.33594 0.078125-0.4375 0.23438-0.09375 0.14844-0.14062 0.35938-0.14062 0.64062v1.4688h-0.96875v-1.5625c0-0.33203-0.03125-0.54688-0.09375-0.64062-0.054688-0.09375-0.15234-0.14062-0.29688-0.14062-0.17969 0-0.32031 0.078125-0.42188 0.23438-0.09375 0.14844-0.14062 0.35938-0.14062 0.64062v1.4688h-0.96875v-2.9844h0.96875v0.4375c0.11328-0.17578 0.24219-0.30469 0.39062-0.39062 0.15625-0.082031 0.32812-0.125 0.51562-0.125 0.20703 0 0.39062 0.054688 0.54688 0.15625 0.15625 0.09375 0.27344 0.23047 0.35938 0.40625z"/>
  </symbol>
  <symbol id="r" overflow="visible">
   <path d="m3.4688-1.8281v1.8281h-0.96875v-1.3906c0-0.25781-0.007812-0.4375-0.015625-0.53125-0.011719-0.10156-0.03125-0.17578-0.0625-0.21875-0.03125-0.0625-0.085937-0.10938-0.15625-0.14062-0.0625-0.039062-0.13281-0.0625-0.20312-0.0625-0.21094 0-0.37109 0.078125-0.48438 0.23438-0.10547 0.15625-0.15625 0.37109-0.15625 0.64062v1.4688h-0.96875v-4.1562h0.96875v1.6094c0.13281-0.17578 0.28516-0.30469 0.45312-0.39062 0.16406-0.082031 0.34375-0.125 0.53125-0.125 0.34375 0 0.60156 0.10938 0.78125 0.32812 0.1875 0.21094 0.28125 0.51172 0.28125 0.90625z"/>
  </symbol>
  <symbol id="q" overflow="visible">
   <path d="m0.5-3.9844h1.1562l1.4375 2.7344v-2.7344h0.98438v3.9844h-1.1562l-1.4375-2.7344v2.7344h-0.98438z"/>
  </symbol>
  <symbol id="p" overflow="visible">
   <path d="m0.42188-1.1719v-1.8125h0.96875v0.29688 0.60938 0.48438c0 0.24219 0.003906 0.41797 0.015625 0.53125 0.007812 0.10547 0.03125 0.17969 0.0625 0.21875 0.039062 0.0625 0.09375 0.11719 0.15625 0.15625 0.0625 0.03125 0.13281 0.046875 0.21875 0.046875 0.19531 0 0.35156-0.078125 0.46875-0.23438 0.11328-0.15625 0.17188-0.36719 0.17188-0.64062v-1.4688h0.95312v2.9844h-0.95312v-0.4375c-0.14844 0.17969-0.30469 0.30859-0.46875 0.39062-0.15625 0.082031-0.33594 0.125-0.53125 0.125-0.34375 0-0.60938-0.10156-0.79688-0.3125-0.17969-0.21875-0.26562-0.53125-0.26562-0.9375z"/>
  </symbol>
  <symbol id="o" overflow="visible">
   <path d="m0.5-3.9844h1.7031c0.50781 0 0.89844 0.11719 1.1719 0.34375 0.26953 0.21875 0.40625 0.53906 0.40625 0.95312 0 0.41797-0.13672 0.74219-0.40625 0.96875-0.27344 0.21875-0.66406 0.32812-1.1719 0.32812h-0.67188v1.3906h-1.0312zm1.0312 0.75v1.1094h0.5625c0.19531 0 0.34766-0.046875 0.45312-0.14062 0.11328-0.10156 0.17188-0.24219 0.17188-0.42188 0-0.17578-0.058594-0.3125-0.17188-0.40625-0.10547-0.09375-0.25781-0.14062-0.45312-0.14062z"/>
  </symbol>
  <symbol id="n" overflow="visible">
   <path d="m0.45312-2.9844h0.96875v2.9375c0 0.39453-0.10156 0.69531-0.29688 0.90625-0.1875 0.21875-0.46484 0.32812-0.82812 0.32812h-0.48438v-0.64062h0.17188c0.17578 0 0.29688-0.042969 0.35938-0.125 0.070312-0.074219 0.10938-0.23047 0.10938-0.46875zm0-1.1719h0.96875v0.78125h-0.96875z"/>
  </symbol>
  <symbol id="m" overflow="visible">
   <path d="m2.875-2.8906v0.76562c-0.125-0.082031-0.25781-0.14453-0.39062-0.1875-0.13672-0.039062-0.27344-0.0625-0.40625-0.0625-0.27344 0-0.48047 0.078125-0.625 0.23438-0.14844 0.15625-0.21875 0.37109-0.21875 0.64062 0 0.28125 0.070313 0.5 0.21875 0.65625 0.14453 0.15625 0.35156 0.23438 0.625 0.23438 0.14453 0 0.28516-0.019531 0.42188-0.0625 0.13281-0.039063 0.25781-0.10938 0.375-0.20312v0.78125c-0.14844 0.0625-0.29688 0.10156-0.45312 0.125-0.15625 0.03125-0.3125 0.046875-0.46875 0.046875-0.54297 0-0.96484-0.13281-1.2656-0.40625-0.30469-0.28125-0.45312-0.67188-0.45312-1.1719 0-0.48828 0.14844-0.86719 0.45312-1.1406 0.30078-0.28125 0.72266-0.42188 1.2656-0.42188 0.15625 0 0.3125 0.015625 0.46875 0.046875 0.15625 0.023437 0.30469 0.0625 0.45312 0.125z"/>
  </symbol>
 </defs>
 <g>
  <path d="m489.63 410.98c0.90625-0.003906 1.8086-0.15625 2.668-0.44922 0.64453-0.23047 1.3125-0.44922 1.9688-0.66797 4.3008-1.4258 6.6289-6.0703 5.1992-10.371-1.4258-4.3008-6.0703-6.6328-10.371-5.2031l-2.1211 0.72266h-0.003906c-3.8008 1.293-6.1055 5.1523-5.4453 9.1133 0.65625 3.9609 4.0898 6.8633 8.1055 6.8555z"/>
  <path d="m205.73 409.86c0.65625 0.21875 1.3242 0.4375 1.9688 0.66797 4.2852 1.4727 8.9531-0.80859 10.422-5.0977 1.4727-4.2852-0.80859-8.9492-5.0938-10.422l-2.1211-0.72266h-0.003906c-4.3008-1.4297-8.9453 0.90234-10.371 5.2031-1.4297 4.3008 0.89844 8.9453 5.1992 10.371z"/>
  <path d="m622.74 413.82c-0.74219-0.085937-9.9766-1.0938-25.156-1.4102l10.688-55.945h-0.003906c0.46094-2.4023-0.17578-4.8867-1.7344-6.7695-1.5586-1.8867-3.8789-2.9766-6.3242-2.9766-35.809 0.66406-71.465 4.8086-106.46 12.383-33.098 7.2422-61.875 17.238-85.531 29.719-25.254 13.32-44.766 29.531-58.188 48.355-13.422-18.801-32.934-35-58.188-48.355-23.656-12.48-52.434-22.477-85.531-29.719-35.012-7.5742-70.676-11.719-106.49-12.383-2.4453 0-4.7656 1.0898-6.3242 2.9766-1.5625 1.8828-2.1992 4.3672-1.7383 6.7695l10.688 55.945c-15.203 0.29688-24.434 1.3242-25.156 1.4102-4.1484 0.46875-7.2852 3.9766-7.2852 8.1484v38.633c-0.003906 2.2695 0.9375 4.4414 2.5977 5.9922 1.6562 1.5547 3.8867 2.3516 6.1523 2.1992 56.152-3.5703 112.4 5.1797 164.82 25.637 33.633 13.18 55.398 27.344 61.25 31.348l8.2031 17.129c2.4648 5.1094 6.3125 9.4219 11.113 12.445 4.7969 3.0234 10.352 4.6328 16.023 4.6484h19.688c5.6719-0.015625 11.223-1.6289 16.02-4.6523 4.793-3.0234 8.6445-7.3359 11.105-12.441l8.2031-17.129c5.8828-4.0352 27.648-18.168 61.25-31.348 52.418-20.461 108.67-29.211 164.83-25.637 2.2656 0.15234 4.4961-0.64453 6.1523-2.1992 1.6602-1.5508 2.6016-3.7227 2.5977-5.9922v-38.633c0-4.168-3.125-7.6719-7.2617-8.1484zm-32.516-50.422-3.1289 16.352c-23.953 0.13672-47.836 2.6289-71.305 7.4375-2.1797 0.39453-4.1055 1.6562-5.3398 3.4961-1.2383 1.8398-1.6758 4.1016-1.2188 6.2695 0.46094 2.168 1.7773 4.0586 3.6484 5.2422 1.875 1.1836 4.1484 1.5586 6.3008 1.0391 21.332-4.3594 43.02-6.7305 64.785-7.0781l-3.1055 16.273c-12.602 0.25-27.508 1.0938-43.969 2.9766-44.844 5.1719-109.76 19.766-166.09 59.719h-12.602v-20.43c45.719-78.312 192.32-89.668 232.02-91.297zm-248.43 91.297v20.41l-12.578-0.003907c-56.328-39.953-121.27-54.547-166.09-59.719-16.406-1.9141-31.367-2.7227-43.969-2.9766l-3.1055-16.273c21.766 0.35156 43.453 2.7188 64.781 7.0781 2.1562 0.51953 4.4258 0.14453 6.3008-1.0391 1.875-1.1797 3.1914-3.0703 3.6484-5.2383 0.45703-2.168 0.019532-4.4297-1.2148-6.2695-1.2344-1.8398-3.1641-3.1016-5.3438-3.5-23.465-4.8008-47.348-7.2852-71.301-7.4141l-3.1289-16.352c39.66 1.6172 186.23 12.918 232 91.297zm271.8-2.7578c-55.883-2.3125-111.64 7.0352-163.71 27.441-41.344 16.273-65.055 33.578-66.051 34.312h-0.003906c-1.0781 0.79688-1.9492 1.8477-2.5234 3.0625l-9.1328 19.074c-2.2852 4.7344-7.0703 7.75-12.328 7.7656h-19.688c-5.2578-0.015625-10.043-3.0312-12.328-7.7656l-9.1328-19.074c-0.57422-1.2148-1.4453-2.2656-2.5234-3.0625-0.99609-0.73438-24.707-18.035-66.051-34.312h-0.003906c-46.738-18.309-96.484-27.738-146.68-27.801-5.5859 0-11.262 0.125-17.031 0.37109v-22.422c29.836-1.9375 145.54-4.5938 235.35 60.43 1.3984 1.0078 3.0781 1.5508 4.8047 1.5508h46.879-0.003906c1.7266 0 3.4062-0.54297 4.8047-1.5508 53.836-38.969 116.77-53.18 160.09-58.23h-0.003907c24.973-2.9453 50.16-3.6758 75.262-2.1875z"/>
  <path d="m350 300.78c82.93 0 150.39-67.461 150.39-150.39s-67.461-150.39-150.39-150.39-150.39 67.461-150.39 150.39 67.461 150.39 150.39 150.39zm85.137-47.031-4.2656-19.48c-1.4258-6.5859-5.25-12.406-10.723-16.34-5.4727-3.9297-12.207-5.6914-18.906-4.9453l-25.09 2.7578c-4.7539 0.52344-9.293-2.1172-11.184-6.5117-1.8867-4.3945-0.68359-9.5078 2.9688-12.598l44.219-37.438c6.1133-5.1758 9.6406-12.773 9.6484-20.781v-5.0312c-0.015626-4.7734 3.0938-8.9922 7.6562-10.391l47.699-14.832c8.5234 25.672 9.0742 53.324 1.5703 79.312-7.5 25.992-22.699 49.098-43.594 66.277zm35.855-160.88-46.418 14.438h-0.003907c-5.5664 1.7109-10.434 5.168-13.887 9.8594-3.4531 4.6914-5.3047 10.367-5.2852 16.191v5.0312c0.003906 3.2031-1.4023 6.2383-3.8516 8.3047l-44.219 37.449c-5.9844 5.0664-9.4961 12.469-9.6406 20.309s3.0898 15.363 8.8828 20.652c5.793 5.2852 13.578 7.8242 21.375 6.9648l25.09-2.7578v0.003906c5.5312-0.62109 10.629 3.0469 11.801 8.4883l5.7852 26.391h0.003906c-30.68 19.074-67.766 24.938-102.83 16.258-35.066-8.6836-65.137-31.172-83.371-62.359l32.242-18.484h0.003907c6.5547-3.7695 11.227-10.117 12.871-17.5l4.2422-18.945h0.003906c1.1172-4.9883 5.6758-8.4414 10.785-8.168l32.004 1.6719h-0.003907c7.7695 0.40625 15.336-2.5703 20.742-8.1641 5.4062-5.5898 8.1289-13.25 7.4609-21-0.66797-7.75-4.6562-14.832-10.941-19.418l-2.582-1.8281c-4.3555-3.1641-5.5977-9.1172-2.875-13.758l1.9375-3.2812h-0.003906c3.5547-6.0234 4.6133-13.199 2.9492-19.992-1.6641-6.793-5.918-12.664-11.852-16.367l-38.008-23.898c32.043-14.945 68.695-16.617 101.96-4.6445s60.457 36.617 75.629 68.555zm-193.95-54.809 45.609 28.656c4.8438 3 6.3906 9.3242 3.4766 14.219l-1.9375 3.2812h0.003907c-3.3711 5.75-4.4805 12.547-3.1133 19.07 1.3672 6.5195 5.1133 12.301 10.508 16.215l2.5586 1.8711c3.7422 2.7344 5.2461 7.6055 3.6953 11.977-1.5508 4.3711-5.7891 7.2031-10.422 6.9648l-32.016-1.6719c-6.3555-0.34375-12.625 1.5859-17.688 5.4414-5.0625 3.8555-8.5898 9.3867-9.9492 15.602l-4.2422 18.934h-0.003906c-0.63672 2.8711-2.457 5.3398-5.0078 6.8008l-31.543 18.016c-12.531-29.039-14.375-61.574-5.2109-91.844s28.75-56.32 55.281-73.531z"/>
  <path d="m315.48 243.2c-16.887-4.7578-28.504-17.773-28.613-17.883-3.0469-3.0703-7.9531-3.2461-11.211-0.40234-3.2617 2.8438-3.7539 7.7305-1.125 11.164 0.58984 0.67969 14.797 16.801 36.555 22.914 2.1094 0.63672 4.3828 0.39844 6.3164-0.66406 1.9297-1.0586 3.3516-2.8516 3.9492-4.9727 0.59375-2.1211 0.30859-4.3945-0.78906-6.3047s-2.918-3.2969-5.0469-3.8516z"/>
  <use x="70" y="576.40625" xlink:href="#x"/>
  <use x="74.011719" y="576.40625" xlink:href="#d"/>
  <use x="76.710938" y="576.40625" xlink:href="#a"/>
  <use x="80.417969" y="576.40625" xlink:href="#f"/>
  <use x="84.109375" y="576.40625" xlink:href="#c"/>
  <use x="86.722656" y="576.40625" xlink:href="#a"/>
  <use x="90.433594" y="576.40625" xlink:href="#l"/>
  <use x="96.25" y="576.40625" xlink:href="#k"/>
  <use x="100.167969" y="576.40625" xlink:href="#e"/>
  <use x="105.636719" y="576.40625" xlink:href="#j"/>
  <use x="109.59375" y="576.40625" xlink:href="#b"/>
  <use x="113.351562" y="576.40625" xlink:href="#w"/>
  <use x="117.265625" y="576.40625" xlink:href="#i"/>
  <use x="121.046875" y="576.40625" xlink:href="#v"/>
  <use x="125.277344" y="576.40625" xlink:href="#u"/>
  <use x="129.191406" y="576.40625" xlink:href="#d"/>
  <use x="131.890625" y="576.40625" xlink:href="#a"/>
  <use x="135.597656" y="576.40625" xlink:href="#h"/>
  <use x="137.472656" y="576.40625" xlink:href="#h"/>
  <use x="139.347656" y="576.40625" xlink:href="#i"/>
  <use x="141.222656" y="576.40625" xlink:href="#e"/>
  <use x="144.785156" y="576.40625" xlink:href="#f"/>
  <use x="148.476562" y="576.40625" xlink:href="#g"/>
  <use x="152.371094" y="576.40625" xlink:href="#c"/>
  <use x="154.984375" y="576.40625" xlink:href="#b"/>
  <use x="70" y="581.875" xlink:href="#t"/>
  <use x="72.378906" y="581.875" xlink:href="#d"/>
  <use x="75.078125" y="581.875" xlink:href="#b"/>
  <use x="78.832031" y="581.875" xlink:href="#s"/>
  <use x="86.4375" y="581.875" xlink:href="#c"/>
  <use x="89.050781" y="581.875" xlink:href="#r"/>
  <use x="92.941406" y="581.875" xlink:href="#a"/>
  <use x="98.554688" y="581.875" xlink:href="#q"/>
  <use x="103.132812" y="581.875" xlink:href="#b"/>
  <use x="106.890625" y="581.875" xlink:href="#p"/>
  <use x="110.785156" y="581.875" xlink:href="#g"/>
  <use x="116.582031" y="581.875" xlink:href="#o"/>
  <use x="120.589844" y="581.875" xlink:href="#d"/>
  <use x="123.285156" y="581.875" xlink:href="#b"/>
  <use x="127.042969" y="581.875" xlink:href="#n"/>
  <use x="128.917969" y="581.875" xlink:href="#a"/>
  <use x="132.625" y="581.875" xlink:href="#m"/>
  <use x="135.867188" y="581.875" xlink:href="#c"/>
 </g>
</svg>
