<?xml version="1.0" encoding="UTF-8"?>
<svg width="700pt" height="700pt" version="1.1" viewBox="0 0 700 700" xmlns="http://www.w3.org/2000/svg" xmlns:xlink="http://www.w3.org/1999/xlink">
 <defs>
  <symbol id="v" overflow="visible">
   <path d="m20.609-1.2344c-1.0625 0.55469-2.1719 0.96875-3.3281 1.25-1.1484 0.28125-2.3438 0.42188-3.5938 0.42188-3.7422 0-6.7031-1.0391-8.8906-3.125-2.1797-2.0938-3.2656-4.9258-3.2656-8.5 0-3.582 1.0859-6.4141 3.2656-8.5 2.1875-2.0938 5.1484-3.1406 8.8906-3.1406 1.25 0 2.4453 0.14062 3.5938 0.42188 1.1562 0.27344 2.2656 0.68359 3.3281 1.2344v4.6406c-1.0742-0.72656-2.1328-1.2578-3.1719-1.5938-1.043-0.34375-2.1367-0.51562-3.2812-0.51562-2.0625 0-3.6875 0.66406-4.875 1.9844-1.1797 1.3242-1.7656 3.1484-1.7656 5.4688 0 2.3125 0.58594 4.1328 1.7656 5.4531 1.1875 1.3242 2.8125 1.9844 4.875 1.9844 1.1445 0 2.2383-0.17188 3.2812-0.51562 1.0391-0.34375 2.0977-0.87891 3.1719-1.6094z"/>
  </symbol>
  <symbol id="d" overflow="visible">
   <path d="m15.078-12.25c-0.46875-0.21875-0.9375-0.37891-1.4062-0.48438-0.46094-0.10156-0.92969-0.15625-1.4062-0.15625-1.375 0-2.4375 0.44531-3.1875 1.3281-0.74219 0.88672-1.1094 2.1562-1.1094 3.8125v7.75h-5.3906v-16.828h5.3906v2.7656c0.6875-1.1016 1.4766-1.9062 2.375-2.4062 0.89453-0.50781 1.9688-0.76562 3.2188-0.76562 0.17578 0 0.36719 0.011719 0.57812 0.03125 0.21875 0.011719 0.52344 0.042969 0.92188 0.09375z"/>
  </symbol>
  <symbol id="b" overflow="visible">
   <path d="m19.375-8.4531v1.5312h-12.562c0.125 1.2617 0.57812 2.2109 1.3594 2.8438 0.78125 0.625 1.875 0.9375 3.2812 0.9375 1.125 0 2.2812-0.16406 3.4688-0.5 1.1875-0.33203 2.4062-0.84375 3.6562-1.5312v4.1562c-1.2734 0.48047-2.543 0.83984-3.8125 1.0781-1.2734 0.25-2.543 0.375-3.8125 0.375-3.043 0-5.4062-0.76953-7.0938-2.3125-1.6875-1.5508-2.5312-3.7227-2.5312-6.5156 0-2.75 0.82812-4.9102 2.4844-6.4844 1.6562-1.5703 3.9375-2.3594 6.8438-2.3594 2.6328 0 4.7422 0.79688 6.3281 2.3906 1.5938 1.5938 2.3906 3.7266 2.3906 6.3906zm-5.5312-1.7969c0-1.0195-0.29688-1.8438-0.89062-2.4688s-1.3711-0.9375-2.3281-0.9375c-1.043 0-1.8906 0.29688-2.5469 0.89062-0.64844 0.58594-1.0547 1.4219-1.2188 2.5156z"/>
  </symbol>
  <symbol id="j" overflow="visible">
   <path d="m10.125-7.5781c-1.125 0-1.9688 0.19531-2.5312 0.57812-0.5625 0.38672-0.84375 0.94922-0.84375 1.6875 0 0.67969 0.22266 1.2109 0.67188 1.5938 0.45703 0.38672 1.0938 0.57812 1.9062 0.57812 1.0078 0 1.8594-0.35938 2.5469-1.0781 0.69531-0.72656 1.0469-1.6406 1.0469-2.7344v-0.625zm8.2188-2.0156v9.5938h-5.4219v-2.5c-0.71875 1.0234-1.5312 1.7656-2.4375 2.2344-0.89844 0.46875-1.9922 0.70312-3.2812 0.70312-1.75 0-3.168-0.50391-4.25-1.5156-1.0859-1.0195-1.625-2.3438-1.625-3.9688 0-1.9688 0.67578-3.4102 2.0312-4.3281 1.3516-0.92578 3.4844-1.3906 6.3906-1.3906h3.1719v-0.42188c0-0.85156-0.33984-1.4766-1.0156-1.875-0.66797-0.39453-1.7148-0.59375-3.1406-0.59375-1.1484 0-2.2148 0.11719-3.2031 0.34375-0.99219 0.23047-1.9141 0.57812-2.7656 1.0469v-4.1094c1.1445-0.28125 2.2969-0.49219 3.4531-0.64062 1.1641-0.14453 2.332-0.21875 3.5-0.21875 3.0312 0 5.2188 0.60156 6.5625 1.7969 1.3516 1.1992 2.0312 3.1484 2.0312 5.8438z"/>
  </symbol>
  <symbol id="c" overflow="visible">
   <path d="m8.4531-21.609v4.7812h5.5469v3.8438h-5.5469v7.1406c0 0.78125 0.15625 1.3125 0.46875 1.5938 0.3125 0.27344 0.92578 0.40625 1.8438 0.40625h2.7656v3.8438h-4.6094c-2.125 0-3.6328-0.44141-4.5156-1.3281-0.88672-0.88281-1.3281-2.3906-1.3281-4.5156v-7.1406h-2.6719v-3.8438h2.6719v-4.7812z"/>
  </symbol>
  <symbol id="i" overflow="visible">
   <path d="m14.031-14.359v-9.0156h5.4062v23.375h-5.4062v-2.4375c-0.74219 0.99219-1.5586 1.7188-2.4531 2.1875-0.88672 0.45703-1.918 0.6875-3.0938 0.6875-2.0742 0-3.7773-0.82031-5.1094-2.4688-1.3359-1.6445-2-3.7656-2-6.3594s0.66406-4.7109 2-6.3594c1.332-1.6562 3.0352-2.4844 5.1094-2.4844 1.1641 0 2.1953 0.23438 3.0938 0.70312 0.89453 0.46875 1.7109 1.1953 2.4531 2.1719zm-3.5469 10.891c1.1562 0 2.0352-0.42188 2.6406-1.2656 0.60156-0.84375 0.90625-2.0625 0.90625-3.6562 0-1.6016-0.30469-2.8281-0.90625-3.6719-0.60547-0.84375-1.4844-1.2656-2.6406-1.2656-1.1484 0-2.0234 0.42188-2.625 1.2656-0.60547 0.84375-0.90625 2.0703-0.90625 3.6719 0 1.5938 0.30078 2.8125 0.90625 3.6562 0.60156 0.84375 1.4766 1.2656 2.625 1.2656z"/>
  </symbol>
  <symbol id="g" overflow="visible">
   <path d="m11.531-3.4688c1.1562 0 2.0352-0.42188 2.6406-1.2656 0.60156-0.84375 0.90625-2.0625 0.90625-3.6562 0-1.6016-0.30469-2.8281-0.90625-3.6719-0.60547-0.84375-1.4844-1.2656-2.6406-1.2656-1.1484 0-2.0273 0.42969-2.6406 1.2812-0.61719 0.84375-0.92188 2.0625-0.92188 3.6562 0 1.5859 0.30469 2.8047 0.92188 3.6562 0.61328 0.84375 1.4922 1.2656 2.6406 1.2656zm-3.5625-10.891c0.73828-0.97656 1.5547-1.7031 2.4531-2.1719 0.90625-0.46875 1.9414-0.70312 3.1094-0.70312 2.0703 0 3.7734 0.82812 5.1094 2.4844 1.332 1.6484 2 3.7656 2 6.3594s-0.66797 4.7148-2 6.3594c-1.3359 1.6484-3.0391 2.4688-5.1094 2.4688-1.168 0-2.2031-0.23438-3.1094-0.70312-0.89844-0.46875-1.7148-1.1914-2.4531-2.1719v2.4375h-5.3906v-23.375h5.3906z"/>
  </symbol>
  <symbol id="f" overflow="visible">
   <path d="m0.375-16.828h5.375l4.5312 11.422 3.8438-11.422h5.375l-7.0781 18.422c-0.71094 1.875-1.5391 3.1797-2.4844 3.9219-0.94922 0.75-2.1992 1.125-3.75 1.125h-3.1094v-3.5312h1.6875c0.90625 0 1.5664-0.14844 1.9844-0.4375 0.41406-0.29297 0.73828-0.8125 0.96875-1.5625l0.15625-0.46875z"/>
  </symbol>
  <symbol id="h" overflow="visible">
   <path d="m11.812-13.75c0.90625 0 1.5938-0.19531 2.0625-0.59375 0.47656-0.40625 0.71875-1 0.71875-1.7812 0-0.76953-0.24219-1.3594-0.71875-1.7656-0.46875-0.40625-1.1562-0.60938-2.0625-0.60938h-3.2031v4.75zm0.1875 9.8125c1.1641 0 2.0391-0.24219 2.625-0.73438 0.58203-0.48828 0.875-1.2266 0.875-2.2188 0-0.97656-0.29297-1.707-0.875-2.1875-0.57422-0.48828-1.4492-0.73438-2.625-0.73438h-3.3906v5.875zm5.375-8.0625c1.25 0.35547 2.2109 1.0234 2.8906 2 0.67578 0.96875 1.0156 2.1641 1.0156 3.5781 0 2.1562-0.73047 3.7656-2.1875 4.8281-1.4609 1.0625-3.6836 1.5938-6.6719 1.5938h-9.5938v-22.422h8.6719c3.1133 0 5.3672 0.46875 6.7656 1.4062 1.4062 0.9375 2.1094 2.4453 2.1094 4.5156 0 1.0938-0.25781 2.0273-0.76562 2.7969-0.51172 0.76172-1.2578 1.3281-2.2344 1.7031z"/>
  </symbol>
  <symbol id="a" overflow="visible">
   <path d="m10.594-13.391c-1.1992 0-2.1094 0.43359-2.7344 1.2969-0.625 0.85547-0.9375 2.0898-0.9375 3.7031 0 1.6055 0.3125 2.8398 0.9375 3.7031 0.625 0.85547 1.5352 1.2812 2.7344 1.2812 1.1641 0 2.0625-0.42578 2.6875-1.2812 0.625-0.86328 0.9375-2.0977 0.9375-3.7031 0-1.6133-0.3125-2.8477-0.9375-3.7031-0.625-0.86328-1.5234-1.2969-2.6875-1.2969zm0-3.8438c2.8945 0 5.1562 0.78125 6.7812 2.3438s2.4375 3.7305 2.4375 6.5c0 2.7617-0.8125 4.9219-2.4375 6.4844s-3.8867 2.3438-6.7812 2.3438c-2.9062 0-5.1797-0.78125-6.8125-2.3438-1.6367-1.5625-2.4531-3.7227-2.4531-6.4844 0-2.7695 0.81641-4.9375 2.4531-6.5 1.6328-1.5625 3.9062-2.3438 6.8125-2.3438z"/>
  </symbol>
  <symbol id="e" overflow="visible">
   <path d="m18.172-14.031c0.6875-1.0391 1.4922-1.832 2.4219-2.375 0.9375-0.55078 1.9688-0.82812 3.0938-0.82812 1.9375 0 3.4102 0.60156 4.4219 1.7969 1.0078 1.1875 1.5156 2.918 1.5156 5.1875v10.25h-5.4062v-8.7656c0.007812-0.13281 0.015625-0.26953 0.015625-0.40625 0.007813-0.14453 0.015625-0.34766 0.015625-0.60938 0-1.1875-0.17969-2.0469-0.53125-2.5781-0.35547-0.53906-0.92188-0.8125-1.7031-0.8125-1.0234 0-1.8086 0.42188-2.3594 1.2656-0.55469 0.83594-0.83984 2.0469-0.85938 3.6406v8.2656h-5.4062v-8.7656c0-1.8633-0.16406-3.0625-0.48438-3.5938-0.32422-0.53906-0.89844-0.8125-1.7188-0.8125-1.0312 0-1.8281 0.42188-2.3906 1.2656-0.55469 0.84375-0.82812 2.0547-0.82812 3.625v8.2812h-5.4219v-16.828h5.4219v2.4688c0.65625-0.94531 1.4102-1.6602 2.2656-2.1406 0.85156-0.48828 1.7969-0.73438 2.8281-0.73438 1.1641 0 2.1914 0.28125 3.0781 0.84375 0.89453 0.5625 1.5703 1.3516 2.0312 2.3594z"/>
  </symbol>
  <symbol id="u" overflow="visible">
   <path d="m18.438-21.719v4.75c-1.2422-0.55078-2.4492-0.96875-3.625-1.25-1.168-0.28125-2.2734-0.42188-3.3125-0.42188-1.375 0-2.3984 0.19531-3.0625 0.57812-0.65625 0.375-0.98438 0.96484-0.98438 1.7656 0 0.60547 0.21875 1.0742 0.65625 1.4062 0.44531 0.33594 1.2578 0.62109 2.4375 0.85938l2.4688 0.5c2.4883 0.5 4.2578 1.2617 5.3125 2.2812 1.0508 1.0234 1.5781 2.4766 1.5781 4.3594 0 2.4688-0.73438 4.3086-2.2031 5.5156-1.4688 1.2109-3.7109 1.8125-6.7188 1.8125-1.4297 0-2.8594-0.13672-4.2969-0.40625-1.4297-0.26953-2.8555-0.67188-4.2812-1.2031v-4.875c1.4258 0.76172 2.8047 1.3359 4.1406 1.7188 1.3438 0.38672 2.6328 0.57812 3.875 0.57812 1.2578 0 2.2227-0.20703 2.8906-0.625 0.67578-0.42578 1.0156-1.0312 1.0156-1.8125 0-0.69531-0.23047-1.2344-0.6875-1.6094-0.44922-0.38281-1.3555-0.72656-2.7188-1.0312l-2.2344-0.5c-2.25-0.47656-3.8984-1.2422-4.9375-2.2969-1.0312-1.0508-1.5469-2.4688-1.5469-4.25 0-2.2383 0.71875-3.957 2.1562-5.1562 1.4453-1.1953 3.5234-1.7969 6.2344-1.7969 1.2266 0 2.4922 0.09375 3.7969 0.28125 1.3008 0.17969 2.6484 0.45312 4.0469 0.82812z"/>
  </symbol>
  <symbol id="t" overflow="visible">
   <path d="m2.5781-23.375h5.3906v23.375h-5.3906z"/>
  </symbol>
  <symbol id="s" overflow="visible">
   <path d="m15.734-16.297v4.0781c-1.1562-0.47656-2.2734-0.83594-3.3438-1.0781-1.0742-0.23828-2.0859-0.35938-3.0312-0.35938-1.0234 0-1.7812 0.13281-2.2812 0.39062-0.49219 0.25-0.73438 0.64062-0.73438 1.1719 0 0.42969 0.1875 0.76172 0.5625 1 0.375 0.23047 1.0469 0.39844 2.0156 0.5l0.95312 0.14062c2.75 0.34375 4.5977 0.91797 5.5469 1.7188 0.95703 0.80469 1.4375 2.0625 1.4375 3.7812 0 1.793-0.66406 3.1406-1.9844 4.0469-1.3242 0.89844-3.2969 1.3438-5.9219 1.3438-1.1172 0-2.2656-0.089844-3.4531-0.26562-1.1875-0.17578-2.4062-0.4375-3.6562-0.78125v-4.0938c1.0703 0.52344 2.1719 0.91406 3.2969 1.1719 1.125 0.26172 2.2695 0.39062 3.4375 0.39062 1.0508 0 1.8438-0.14453 2.375-0.4375 0.53125-0.28906 0.79688-0.72266 0.79688-1.2969 0-0.47656-0.18359-0.83203-0.54688-1.0625-0.36719-0.23828-1.0938-0.42188-2.1875-0.54688l-0.95312-0.125c-2.3867-0.30078-4.0625-0.85938-5.0312-1.6719-0.96094-0.8125-1.4375-2.0391-1.4375-3.6875 0-1.7812 0.60938-3.1016 1.8281-3.9688 1.2188-0.86328 3.0938-1.2969 5.625-1.2969 0.98828 0 2.0312 0.078125 3.125 0.23438 1.0938 0.14844 2.2812 0.38281 3.5625 0.70312z"/>
  </symbol>
  <symbol id="r" overflow="visible">
   <path d="m13.656-23.375v3.5312h-2.9688c-0.76172 0-1.293 0.14062-1.5938 0.42188-0.30469 0.27344-0.45312 0.74609-0.45312 1.4219v1.1719h4.5938v3.8438h-4.5938v12.984h-5.375v-12.984h-2.6875v-3.8438h2.6875v-1.1719c0-1.832 0.50781-3.1875 1.5312-4.0625 1.0195-0.875 2.6016-1.3125 4.75-1.3125z"/>
  </symbol>
  <symbol id="q" overflow="visible">
   <path d="m19.5-10.25v10.25h-5.4062v-7.8125c0-1.4688-0.039062-2.4766-0.10938-3.0312-0.0625-0.55078-0.17188-0.95703-0.32812-1.2188-0.21094-0.35156-0.49609-0.625-0.85938-0.8125-0.35547-0.19531-0.76562-0.29688-1.2344-0.29688-1.1172 0-1.9961 0.43359-2.6406 1.2969-0.63672 0.86719-0.95312 2.0625-0.95312 3.5938v8.2812h-5.3906v-23.375h5.3906v9.0156c0.80078-0.97656 1.6562-1.7031 2.5625-2.1719 0.91406-0.46875 1.9258-0.70312 3.0312-0.70312 1.9453 0 3.4219 0.60156 4.4219 1.7969 1.0078 1.1875 1.5156 2.918 1.5156 5.1875z"/>
  </symbol>
  <symbol id="p" overflow="visible">
   <path d="m2.8281-22.422h6.4531l8.1562 15.375v-15.375h5.4844v22.422h-6.4531l-8.1562-15.391v15.391h-5.4844z"/>
  </symbol>
  <symbol id="o" overflow="visible">
   <path d="m2.4062-6.5469v-10.281h5.4062v1.6875c0 0.90625-0.007812 2.0547-0.015625 3.4375-0.011719 1.375-0.015625 2.293-0.015625 2.75 0 1.3555 0.03125 2.3281 0.09375 2.9219 0.070312 0.59375 0.19531 1.0273 0.375 1.2969 0.21875 0.35547 0.50391 0.625 0.85938 0.8125 0.35156 0.1875 0.75781 0.28125 1.2188 0.28125 1.125 0 2.0039-0.42578 2.6406-1.2812 0.64453-0.86328 0.96875-2.0625 0.96875-3.5938v-8.3125h5.375v16.828h-5.375v-2.4375c-0.8125 0.98047-1.6719 1.7031-2.5781 2.1719s-1.9023 0.70312-2.9844 0.70312c-1.9492 0-3.4336-0.59375-4.4531-1.7812-1.0117-1.1953-1.5156-2.9297-1.5156-5.2031z"/>
  </symbol>
  <symbol id="n" overflow="visible">
   <path d="m19.5-10.25v10.25h-5.4062v-7.8438c0-1.4453-0.039062-2.4453-0.10938-3-0.0625-0.55078-0.17188-0.95703-0.32812-1.2188-0.21094-0.35156-0.49609-0.625-0.85938-0.8125-0.35547-0.19531-0.76562-0.29688-1.2344-0.29688-1.1172 0-1.9961 0.43359-2.6406 1.2969-0.63672 0.86719-0.95312 2.0625-0.95312 3.5938v8.2812h-5.3906v-16.828h5.3906v2.4688c0.80078-0.97656 1.6562-1.7031 2.5625-2.1719 0.91406-0.46875 1.9258-0.70312 3.0312-0.70312 1.9453 0 3.4219 0.60156 4.4219 1.7969 1.0078 1.1875 1.5156 2.918 1.5156 5.1875z"/>
  </symbol>
  <symbol id="m" overflow="visible">
   <path d="m2.8281-22.422h9.5938c2.8516 0 5.0391 0.63672 6.5625 1.9062 1.5312 1.2617 2.2969 3.0625 2.2969 5.4062 0 2.3555-0.76562 4.168-2.2969 5.4375-1.5234 1.2617-3.7109 1.8906-6.5625 1.8906h-3.8125v7.7812h-5.7812zm5.7812 4.1875v6.2656h3.2031c1.1133 0 1.9766-0.26953 2.5938-0.8125 0.61328-0.55078 0.92188-1.3281 0.92188-2.3281s-0.30859-1.7695-0.92188-2.3125c-0.61719-0.53906-1.4805-0.8125-2.5938-0.8125z"/>
  </symbol>
  <symbol id="l" overflow="visible">
   <path d="m2.5781-16.828h5.3906v16.531c0 2.25-0.54297 3.9688-1.625 5.1562-1.0859 1.1875-2.6523 1.7812-4.7031 1.7812h-2.6562v-3.5312h0.92188c1.0195 0 1.7188-0.23047 2.0938-0.6875 0.38281-0.46094 0.57812-1.3672 0.57812-2.7188zm0-6.5469h5.3906v4.3906h-5.3906z"/>
  </symbol>
  <symbol id="k" overflow="visible">
   <path d="m16.172-16.297v4.3906c-0.73047-0.5-1.4648-0.86719-2.2031-1.1094-0.73047-0.25-1.4922-0.375-2.2812-0.375-1.5 0-2.6719 0.44531-3.5156 1.3281-0.83594 0.875-1.25 2.1016-1.25 3.6719 0 1.5742 0.41406 2.7969 1.25 3.6719 0.84375 0.875 2.0156 1.3125 3.5156 1.3125 0.84375 0 1.6406-0.125 2.3906-0.375 0.75781-0.25 1.457-0.61719 2.0938-1.1094v4.3906c-0.83594 0.3125-1.6875 0.54688-2.5625 0.70312-0.86719 0.15625-1.7305 0.23438-2.5938 0.23438-3.043 0-5.418-0.77344-7.125-2.3281-1.7109-1.5625-2.5625-3.7266-2.5625-6.5 0-2.7812 0.85156-4.9453 2.5625-6.5 1.707-1.5625 4.082-2.3438 7.125-2.3438 0.875 0 1.7383 0.078125 2.5938 0.23438 0.86328 0.15625 1.7188 0.39062 2.5625 0.70312z"/>
  </symbol>
 </defs>
 <g>
  <path d="m567 255.88c-2.4922 0-4.9531 0.19531-7.3789 0.46875 1.4414-5.2266 2.2773-10.715 2.2773-16.406 0-34.117-27.754-61.875-61.875-61.875-17.809 0-33.965 7.5-45.297 19.648 0.33984-2.6094 0.56641-5.2383 0.56641-7.8906 0-34.117-27.746-61.875-61.875-61.875-22.984 0-43.051 12.621-53.711 31.281-10.664-18.66-30.73-31.281-53.719-31.281-26.598 0-49.527 16.922-58.191 40.805-7.0508-2.8008-14.715-4.3945-22.758-4.3945-34.117 0-61.875 27.762-61.875 61.883 0 4.3984 0.47266 8.7031 1.3672 12.848-3.7031-0.70703-7.4961-1.1016-11.402-1.1016-34.117 0-61.875 27.754-61.875 61.871 0 32.836 25.734 59.711 58.078 61.688 1.4766 32.836 28.559 59.094 61.734 59.094 22.824 0 42.75-12.449 53.484-30.891 5.4883 28.543 30.617 50.16 60.727 50.16 18.977 0 35.969-8.6016 47.328-22.086 11.531 13.648 28.617 22.086 47.188 22.086 23.891 0 44.602-13.625 54.922-33.496 10.855 8.8047 24.516 13.891 38.93 13.891 26.832 0 49.656-17.188 58.215-41.102 4.9492 1.2305 10.035 1.875 15.145 1.875 34.523 0 62.609-28.074 62.609-62.59-0.003906-34.523-28.09-62.609-62.613-62.609zm-350.2 34.184c0-21.145 17.207-38.355 38.352-38.355s38.352 17.211 38.352 38.355c0 21.145-17.211 38.355-38.352 38.355-21.145 0.003906-38.352-17.215-38.352-38.355zm119.3 24.66c-7.8945 0-15.383-2.3945-21.719-6.7734 1.7031-5.668 2.6523-11.656 2.6523-17.883 0-13.551-4.4258-26.055-11.84-36.246 2.6953-3.6875 5.9883-6.8359 9.7344-9.3359 1.0156-0.52344 1.9688-1.1328 2.9492-1.7188 5.5195-3.0039 11.746-4.7578 18.227-4.7578 21.145 0 38.34 17.211 38.34 38.352 0 5.7734-1.3711 11.199-3.6602 16.105-1.6602 1.6445-2.8125 3.5859-3.2852 5.7891-6.9375 9.9258-18.414 16.469-31.398 16.469zm86.594-76.715c21.137 0 38.352 17.211 38.352 38.352 0 0.66406-0.16016 1.2852-0.19531 1.9375-0.375 1.2812-0.47266 2.5547-0.39453 3.8594-2.8203 18.387-18.602 32.566-37.762 32.566-11.625 0-22.441-5.3164-29.656-14.148 3.1758-7.4336 4.9414-15.625 4.9414-24.215 0-8.5898-1.7656-16.773-4.9414-24.227 7.2227-8.8086 18.094-14.125 29.656-14.125zm77.332-36.41c21.137 0 38.352 17.211 38.352 38.344 0 21.152-17.219 38.352-38.352 38.352-5.4102 0-10.66-1.1797-15.527-3.3555-0.41797-18.078-8.5898-34.234-21.359-45.305 4.5234-16.332 19.371-28.035 36.887-28.035zm-106.61-50.117c21.145 0 38.352 17.207 38.352 38.344 0 9.2305-3.3555 17.766-9.2305 24.664-13.648 0.03125-26.715 4.6094-37.297 12.641-17.348-3.7969-30.172-19.297-30.172-37.312-0.003906-21.133 17.203-38.336 38.348-38.336zm-107.43 0c21.137 0 38.352 17.207 38.352 38.344 0 21.145-17.211 38.355-38.352 38.355-6.8789 0-13.422-1.8477-19.238-5.2617-0.84375-15.848-7.6172-30.148-18.215-40.641 3.5312-17.605 18.992-30.797 37.453-30.797zm-80.949 36.41c21.145 0 38.352 17.211 38.352 38.352 0 1.0391-0.125 2.0781-0.21094 3.1211-19.602 3.8633-35.832 17.008-44.066 34.621-18.32-2.8633-32.43-18.641-32.43-37.746 0.003906-21.133 17.223-38.348 38.355-38.348zm-110.27 111.98c0-21.137 17.207-38.344 38.344-38.344 21.145 0 38.355 17.207 38.355 38.344 0 0.085937-0.019532 0.16797-0.023438 0.25391-18.023 6.043-32.332 20.172-38.676 38.074-20.973-0.19141-38-17.309-38-38.328zm96.289 97.25c-21.152 0-38.355-17.199-38.355-38.352 0-21.145 17.207-38.344 38.355-38.344 3.9141 0 7.7031 0.76953 11.402 1.9258 5.9062 9.6172 14.324 17.488 24.375 22.684 1.6797 4.3867 2.5742 8.9727 2.5742 13.742 0 21.145-17.211 38.344-38.352 38.344zm114.21 19.262c-21.145 0-38.355-17.195-38.355-38.34s17.211-38.352 38.355-38.352c21.137 0 38.352 17.211 38.352 38.352 0 21.145-17.207 38.34-38.352 38.34zm94.523 0c-15.082 0-28.59-8.918-34.789-22.449 1.3594-5.0781 2.1484-10.383 2.1484-15.891 0-5.5273-0.79297-10.863-2.168-15.949 6.2656-13.617 19.766-22.406 34.805-22.406 21.152 0 38.344 17.211 38.344 38.352 0.003906 21.148-17.195 38.344-38.34 38.344zm93.852-19.594c-12.973 0-24.992-6.6523-32.035-17.426 0.007813-0.44922 0.066407-0.875 0.066407-1.3164 0-9.3984-2.168-18.289-5.9453-26.27 0.125-0.37109 0.25781-0.70703 0.33984-1.0781 3.6484-17.746 19.434-30.621 37.574-30.621 21.152 0 38.352 17.207 38.352 38.344 0 21.164-17.207 38.367-38.352 38.367zm73.359-39.227c-4.0117 0-7.8906-0.64453-11.617-1.8164-0.84766-19.691-10.898-37.008-26.008-47.742 4.5781-16.695 19.668-28.59 37.617-28.59 21.551 0 39.082 17.539 39.082 39.09 0.003907 21.539-17.523 39.059-39.074 39.059z"/>
  <path d="m246.43 301.89c6.5 0 11.773-5.3242 11.773-11.82 0-6.5-5.2734-11.766-11.773-11.766-6.4844 0-11.766 5.2695-11.766 11.766v0.11719c0.003906 6.4961 5.2773 11.703 11.766 11.703z"/>
  <path d="m191.05 230.07c6.5 0 11.766-5.3359 11.766-11.828 0-6.5-5.2617-11.766-11.766-11.766-6.4922 0-11.762 5.2617-11.762 11.766v0.14062c0.003907 6.4922 5.2695 11.688 11.762 11.688z"/>
  <path d="m290.78 193.89c6.5 0 11.766-5.3281 11.766-11.82 0-6.5039-5.2695-11.766-11.766-11.766-6.4922 0-11.762 5.2617-11.762 11.766v0.125c0.003907 6.4844 5.2695 11.695 11.762 11.695z"/>
  <path d="m393.41 187.9c6.5 0 11.766-5.3242 11.766-11.82 0-6.4922-5.2695-11.762-11.766-11.762-6.5 0-11.754 5.2695-11.754 11.762v0.125c0 6.4883 5.2539 11.695 11.754 11.695z"/>
  <path d="m305.26 374.99c-6.5 0-11.766 5.2695-11.766 11.773v0.14062c0 6.4844 5.2695 11.68 11.766 11.68 6.4922 0 11.762-5.3359 11.762-11.828 0.003906-6.5-5.2695-11.766-11.762-11.766z"/>
  <path d="m183.23 348.8c-6.4922 0-11.762 5.2617-11.762 11.762v0.12891c0 6.4844 5.2695 11.691 11.762 11.691 6.4922 0 11.766-5.3242 11.766-11.82 0-6.5-5.2734-11.762-11.766-11.762z"/>
  <path d="m425.84 288.07c6.5 0 11.754-5.3281 11.754-11.816 0-6.5-5.2539-11.773-11.754-11.773-6.5039 0-11.766 5.2734-11.766 11.773v0.11719c0 6.4883 5.2656 11.699 11.766 11.699z"/>
  <path d="m500.15 345.12c-6.4922 0-11.762 5.2617-11.762 11.766v0.11719c0 6.4922 5.2695 11.699 11.762 11.699 6.5 0 11.773-5.3242 11.773-11.816 0-6.5-5.2734-11.766-11.773-11.766z"/>
  <path d="m408.61 364.92c-6.4844 0-11.762 5.2617-11.762 11.766v0.11719c0 6.5 5.2734 11.703 11.762 11.703 6.5 0 11.773-5.3242 11.773-11.82 0.003907-6.5039-5.2734-11.766-11.773-11.766z"/>
  <path d="m510.3 238.02c6.4844 0 11.754-5.3359 11.754-11.82 0-6.5-5.2695-11.773-11.754-11.773-6.5 0-11.762 5.2734-11.762 11.773v0.11719c0.003907 6.4922 5.2656 11.703 11.762 11.703z"/>
  <path d="m575.67 306.66c-6.5 0-11.766 5.2734-11.766 11.762v0.12891c0 6.4922 5.2695 11.699 11.766 11.699 6.5 0 11.762-5.3242 11.762-11.828-0.003907-6.4883-5.2617-11.762-11.762-11.762z"/>
  <path d="m133.11 301.83c6.5039 0 11.773-5.3281 11.773-11.832 0-6.4922-5.2617-11.762-11.773-11.762-6.4844 0-11.754 5.2695-11.754 11.762v0.13672c0 6.5 5.2695 11.695 11.754 11.695z"/>
  <use x="70" y="652.308594" xlink:href="#v"/>
  <use x="92.582031" y="652.308594" xlink:href="#d"/>
  <use x="107.753906" y="652.308594" xlink:href="#b"/>
  <use x="128.625" y="652.308594" xlink:href="#j"/>
  <use x="149.386719" y="652.308594" xlink:href="#c"/>
  <use x="164.09375" y="652.308594" xlink:href="#b"/>
  <use x="184.964844" y="652.308594" xlink:href="#i"/>
  <use x="217.703125" y="652.308594" xlink:href="#g"/>
  <use x="239.726562" y="652.308594" xlink:href="#f"/>
  <use x="270.496094" y="652.308594" xlink:href="#h"/>
  <use x="293.949219" y="652.308594" xlink:href="#a"/>
  <use x="315.085938" y="652.308594" xlink:href="#e"/>
  <use x="347.148438" y="652.308594" xlink:href="#u"/>
  <use x="369.308594" y="652.308594" xlink:href="#f"/>
  <use x="389.367187" y="652.308594" xlink:href="#e"/>
  <use x="421.425781" y="652.308594" xlink:href="#g"/>
  <use x="443.453125" y="652.308594" xlink:href="#a"/>
  <use x="464.589844" y="652.308594" xlink:href="#t"/>
  <use x="475.136719" y="652.308594" xlink:href="#s"/>
  <use x="70" y="683.078125" xlink:href="#r"/>
  <use x="83.386719" y="683.078125" xlink:href="#d"/>
  <use x="98.5625" y="683.078125" xlink:href="#a"/>
  <use x="119.699219" y="683.078125" xlink:href="#e"/>
  <use x="162.472656" y="683.078125" xlink:href="#c"/>
  <use x="177.179688" y="683.078125" xlink:href="#q"/>
  <use x="199.085937" y="683.078125" xlink:href="#b"/>
  <use x="230.667969" y="683.078125" xlink:href="#p"/>
  <use x="256.417969" y="683.078125" xlink:href="#a"/>
  <use x="277.558594" y="683.078125" xlink:href="#o"/>
  <use x="299.460938" y="683.078125" xlink:href="#n"/>
  <use x="332.078125" y="683.078125" xlink:href="#m"/>
  <use x="354.628906" y="683.078125" xlink:href="#d"/>
  <use x="369.804688" y="683.078125" xlink:href="#a"/>
  <use x="390.945312" y="683.078125" xlink:href="#l"/>
  <use x="401.492187" y="683.078125" xlink:href="#b"/>
  <use x="422.359375" y="683.078125" xlink:href="#k"/>
  <use x="440.597656" y="683.078125" xlink:href="#c"/>
 </g>
</svg>
