<?xml version="1.0" encoding="UTF-8"?>
<svg width="700pt" height="700pt" version="1.1" viewBox="0 0 700 700" xmlns="http://www.w3.org/2000/svg" xmlns:xlink="http://www.w3.org/1999/xlink">
 <defs>
  <symbol id="u" overflow="visible">
   <path d="m18.766-1.125c-0.96875 0.5-1.9805 0.875-3.0312 1.125-1.043 0.25781-2.1367 0.39062-3.2812 0.39062-3.3984 0-6.0898-0.94531-8.0781-2.8438-1.9922-1.9062-2.9844-4.4844-2.9844-7.7344 0-3.2578 0.99219-5.8359 2.9844-7.7344 1.9883-1.9062 4.6797-2.8594 8.0781-2.8594 1.1445 0 2.2383 0.13281 3.2812 0.39062 1.0508 0.25 2.0625 0.625 3.0312 1.125v4.2188c-0.98047-0.65625-1.9453-1.1406-2.8906-1.4531-0.94922-0.3125-1.9492-0.46875-3-0.46875-1.875 0-3.3516 0.60547-4.4219 1.8125-1.0742 1.1992-1.6094 2.8555-1.6094 4.9688 0 2.1055 0.53516 3.7617 1.6094 4.9688 1.0703 1.1992 2.5469 1.7969 4.4219 1.7969 1.0508 0 2.0508-0.14844 3-0.45312 0.94531-0.3125 1.9102-0.80078 2.8906-1.4688z"/>
  </symbol>
  <symbol id="c" overflow="visible">
   <path d="m13.734-11.141c-0.4375-0.19531-0.87109-0.34375-1.2969-0.4375-0.41797-0.10156-0.83984-0.15625-1.2656-0.15625-1.2617 0-2.2305 0.40625-2.9062 1.2188-0.67969 0.80469-1.0156 1.9531-1.0156 3.4531v7.0625h-4.8906v-15.312h4.8906v2.5156c0.625-1 1.3438-1.7266 2.1562-2.1875 0.82031-0.46875 1.8008-0.70312 2.9375-0.70312 0.16406 0 0.34375 0.011719 0.53125 0.03125 0.19531 0.011719 0.47656 0.039062 0.84375 0.078125z"/>
  </symbol>
  <symbol id="b" overflow="visible">
   <path d="m17.641-7.7031v1.4062h-11.453c0.125 1.1484 0.53906 2.0078 1.25 2.5781 0.70703 0.57422 1.7031 0.85938 2.9844 0.85938 1.0312 0 2.082-0.14844 3.1562-0.45312 1.082-0.3125 2.1914-0.77344 3.3281-1.3906v3.7656c-1.1562 0.4375-2.3125 0.76562-3.4688 0.98438-1.1562 0.22656-2.3125 0.34375-3.4688 0.34375-2.7734 0-4.9297-0.70312-6.4688-2.1094-1.5312-1.4062-2.2969-3.3789-2.2969-5.9219 0-2.5 0.75391-4.4609 2.2656-5.8906 1.5078-1.4375 3.582-2.1562 6.2188-2.1562 2.4062 0 4.332 0.73047 5.7812 2.1875 1.4453 1.4492 2.1719 3.3828 2.1719 5.7969zm-5.0312-1.625c0-0.92578-0.27344-1.6719-0.8125-2.2344-0.54297-0.57031-1.25-0.85938-2.125-0.85938-0.94922 0-1.7188 0.26562-2.3125 0.79688s-0.96484 1.2969-1.1094 2.2969z"/>
  </symbol>
  <symbol id="e" overflow="visible">
   <path d="m9.2188-6.8906c-1.0234 0-1.793 0.17188-2.3125 0.51562-0.51172 0.34375-0.76562 0.85547-0.76562 1.5312 0 0.625 0.20703 1.1172 0.625 1.4688 0.41406 0.34375 0.98828 0.51562 1.7188 0.51562 0.92578 0 1.7031-0.32812 2.3281-0.98438 0.63281-0.66406 0.95312-1.4922 0.95312-2.4844v-0.5625zm7.4688-1.8438v8.7344h-4.9219v-2.2656c-0.65625 0.92969-1.3984 1.6055-2.2188 2.0312-0.82422 0.41406-1.8242 0.625-3 0.625-1.5859 0-2.8711-0.45703-3.8594-1.375-0.99219-0.92578-1.4844-2.1289-1.4844-3.6094 0-1.7891 0.61328-3.1016 1.8438-3.9375 1.2383-0.84375 3.1797-1.2656 5.8281-1.2656h2.8906v-0.39062c0-0.76953-0.30859-1.332-0.92188-1.6875-0.61719-0.36328-1.5703-0.54688-2.8594-0.54688-1.0547 0-2.0312 0.10547-2.9375 0.3125-0.89844 0.21094-1.7305 0.52344-2.5 0.9375v-3.7344c1.0391-0.25 2.0859-0.44141 3.1406-0.57812 1.0625-0.13281 2.125-0.20312 3.1875-0.20312 2.7578 0 4.75 0.54688 5.9688 1.6406 1.2266 1.0859 1.8438 2.8555 1.8438 5.3125z"/>
  </symbol>
  <symbol id="a" overflow="visible">
   <path d="m7.7031-19.656v4.3438h5.0469v3.5h-5.0469v6.5c0 0.71094 0.14062 1.1875 0.42188 1.4375s0.83594 0.375 1.6719 0.375h2.5156v3.5h-4.1875c-1.9375 0-3.3125-0.39844-4.125-1.2031-0.80469-0.8125-1.2031-2.1797-1.2031-4.1094v-6.5h-2.4219v-3.5h2.4219v-4.3438z"/>
  </symbol>
  <symbol id="i" overflow="visible">
   <path d="m12.766-13.078v-8.2031h4.9219v21.281h-4.9219v-2.2188c-0.66797 0.90625-1.4062 1.5703-2.2188 1.9844s-1.7578 0.625-2.8281 0.625c-1.8867 0-3.4336-0.75-4.6406-2.25-1.2109-1.5-1.8125-3.4258-1.8125-5.7812 0-2.3633 0.60156-4.2969 1.8125-5.7969 1.207-1.5 2.7539-2.25 4.6406-2.25 1.0625 0 2 0.21484 2.8125 0.64062 0.82031 0.42969 1.5664 1.0859 2.2344 1.9688zm-3.2188 9.9219c1.0391 0 1.8359-0.37891 2.3906-1.1406 0.55078-0.76953 0.82812-1.8828 0.82812-3.3438 0-1.457-0.27734-2.5664-0.82812-3.3281-0.55469-0.76953-1.3516-1.1562-2.3906-1.1562-1.043 0-1.8398 0.38672-2.3906 1.1562-0.55469 0.76172-0.82812 1.8711-0.82812 3.3281 0 1.4609 0.27344 2.5742 0.82812 3.3438 0.55078 0.76172 1.3477 1.1406 2.3906 1.1406z"/>
  </symbol>
  <symbol id="h" overflow="visible">
   <path d="m10.5-3.1562c1.0508 0 1.8516-0.37891 2.4062-1.1406 0.55078-0.76953 0.82812-1.8828 0.82812-3.3438 0-1.457-0.27734-2.5664-0.82812-3.3281-0.55469-0.76953-1.3555-1.1562-2.4062-1.1562-1.0547 0-1.8594 0.38672-2.4219 1.1562-0.55469 0.77344-0.82812 1.8828-0.82812 3.3281 0 1.4492 0.27344 2.5586 0.82812 3.3281 0.5625 0.77344 1.3672 1.1562 2.4219 1.1562zm-3.25-9.9219c0.67578-0.88281 1.4219-1.5391 2.2344-1.9688 0.82031-0.42578 1.7656-0.64062 2.8281-0.64062 1.8945 0 3.4453 0.75 4.6562 2.25 1.207 1.5 1.8125 3.4336 1.8125 5.7969 0 2.3555-0.60547 4.2812-1.8125 5.7812-1.2109 1.5-2.7617 2.25-4.6562 2.25-1.0625 0-2.0078-0.21094-2.8281-0.625-0.8125-0.42578-1.5586-1.0859-2.2344-1.9844v2.2188h-4.8906v-21.281h4.8906z"/>
  </symbol>
  <symbol id="g" overflow="visible">
   <path d="m0.34375-15.312h4.8906l4.125 10.391 3.5-10.391h4.8906l-6.4375 16.766c-0.64844 1.6953-1.4023 2.8828-2.2656 3.5625-0.86719 0.6875-2 1.0312-3.4062 1.0312h-2.8438v-3.2188h1.5312c0.83203 0 1.4375-0.13672 1.8125-0.40625 0.38281-0.26172 0.67969-0.73047 0.89062-1.4062l0.14062-0.42188z"/>
  </symbol>
  <symbol id="f" overflow="visible">
   <path d="m2.5781-20.406h5.25v16.422h9.25v3.9844h-14.5z"/>
  </symbol>
  <symbol id="t" overflow="visible">
   <path d="m17.641-7.7031v1.4062h-11.453c0.125 1.1484 0.53906 2.0078 1.25 2.5781 0.70703 0.57422 1.7031 0.85938 2.9844 0.85938 1.0312 0 2.082-0.14844 3.1562-0.45312 1.082-0.3125 2.1914-0.77344 3.3281-1.3906v3.7656c-1.1562 0.4375-2.3125 0.76562-3.4688 0.98438-1.1562 0.22656-2.3125 0.34375-3.4688 0.34375-2.7734 0-4.9297-0.70312-6.4688-2.1094-1.5312-1.4062-2.2969-3.3789-2.2969-5.9219 0-2.5 0.75391-4.4609 2.2656-5.8906 1.5078-1.4375 3.582-2.1562 6.2188-2.1562 2.4062 0 4.332 0.73047 5.7812 2.1875 1.4453 1.4492 2.1719 3.3828 2.1719 5.7969zm-5.0312-1.625c0-0.92578-0.27344-1.6719-0.8125-2.2344-0.54297-0.57031-1.25-0.85938-2.125-0.85938-0.94922 0-1.7188 0.26562-2.3125 0.79688s-0.96484 1.2969-1.1094 2.2969zm-0.76562-13.062h3.875l-5.0469 5.1406h-2.6875z"/>
  </symbol>
  <symbol id="d" overflow="visible">
   <path d="m9.6406-12.188c-1.0859 0-1.9141 0.39062-2.4844 1.1719-0.57422 0.78125-0.85938 1.9062-0.85938 3.375s0.28516 2.5938 0.85938 3.375c0.57031 0.77344 1.3984 1.1562 2.4844 1.1562 1.0625 0 1.875-0.38281 2.4375-1.1562 0.57031-0.78125 0.85938-1.9062 0.85938-3.375s-0.28906-2.5938-0.85938-3.375c-0.5625-0.78125-1.375-1.1719-2.4375-1.1719zm0-3.5c2.6328 0 4.6914 0.71484 6.1719 2.1406 1.4766 1.418 2.2188 3.3867 2.2188 5.9062 0 2.5117-0.74219 4.4805-2.2188 5.9062-1.4805 1.418-3.5391 2.125-6.1719 2.125-2.6484 0-4.7148-0.70703-6.2031-2.125-1.4922-1.4258-2.2344-3.3945-2.2344-5.9062 0-2.5195 0.74219-4.4883 2.2344-5.9062 1.4883-1.4258 3.5547-2.1406 6.2031-2.1406z"/>
  </symbol>
  <symbol id="s" overflow="visible">
   <path d="m2.3594-21.281h4.8906v21.281h-4.8906z"/>
  </symbol>
  <symbol id="r" overflow="visible">
   <path d="m12.422-21.281v3.2188h-2.7031c-0.6875 0-1.1719 0.125-1.4531 0.375-0.27344 0.25-0.40625 0.6875-0.40625 1.3125v1.0625h4.1875v3.5h-4.1875v11.812h-4.8906v-11.812h-2.4375v-3.5h2.4375v-1.0625c0-1.6641 0.46094-2.8984 1.3906-3.7031 0.92578-0.80078 2.3672-1.2031 4.3281-1.2031z"/>
  </symbol>
  <symbol id="q" overflow="visible">
   <path d="m16.547-12.766c0.61328-0.94531 1.3477-1.6719 2.2031-2.1719 0.85156-0.5 1.7891-0.75 2.8125-0.75 1.7578 0 3.0977 0.54688 4.0156 1.6406 0.92578 1.0859 1.3906 2.6562 1.3906 4.7188v9.3281h-4.9219v-7.9844-0.35938c0.007813-0.13281 0.015625-0.32031 0.015625-0.5625 0-1.082-0.16406-1.8633-0.48438-2.3438-0.3125-0.48828-0.82422-0.73438-1.5312-0.73438-0.92969 0-1.6484 0.38672-2.1562 1.1562-0.51172 0.76172-0.77344 1.8672-0.78125 3.3125v7.5156h-4.9219v-7.9844c0-1.6953-0.14844-2.7852-0.4375-3.2656-0.29297-0.48828-0.8125-0.73438-1.5625-0.73438-0.9375 0-1.6641 0.38672-2.1719 1.1562-0.51172 0.76172-0.76562 1.8594-0.76562 3.2969v7.5312h-4.9219v-15.312h4.9219v2.2344c0.60156-0.86328 1.2891-1.5156 2.0625-1.9531 0.78125-0.4375 1.6406-0.65625 2.5781-0.65625 1.0625 0 2 0.25781 2.8125 0.76562 0.8125 0.51172 1.4258 1.2305 1.8438 2.1562z"/>
  </symbol>
  <symbol id="p" overflow="visible">
   <path d="m17.75-9.3281v9.3281h-4.9219v-7.1094c0-1.3438-0.03125-2.2656-0.09375-2.7656s-0.16797-0.86719-0.3125-1.1094c-0.1875-0.3125-0.44922-0.55469-0.78125-0.73438-0.32422-0.17578-0.69531-0.26562-1.1094-0.26562-1.0234 0-1.8242 0.39844-2.4062 1.1875-0.58594 0.78125-0.875 1.8711-0.875 3.2656v7.5312h-4.8906v-21.281h4.8906v8.2031c0.73828-0.88281 1.5195-1.5391 2.3438-1.9688 0.83203-0.42578 1.75-0.64062 2.75-0.64062 1.7695 0 3.1133 0.54688 4.0312 1.6406 0.91406 1.0859 1.375 2.6562 1.375 4.7188z"/>
  </symbol>
  <symbol id="o" overflow="visible">
   <path d="m2.5781-20.406h5.875l7.4219 14v-14h4.9844v20.406h-5.875l-7.4219-14v14h-4.9844z"/>
  </symbol>
  <symbol id="n" overflow="visible">
   <path d="m2.1875-5.9688v-9.3438h4.9219v1.5312c0 0.83594-0.007813 1.875-0.015625 3.125-0.011719 1.25-0.015625 2.0859-0.015625 2.5 0 1.2422 0.03125 2.1328 0.09375 2.6719 0.070313 0.54297 0.17969 0.93359 0.32812 1.1719 0.20703 0.32422 0.47266 0.57422 0.79688 0.75 0.32031 0.16797 0.69141 0.25 1.1094 0.25 1.0195 0 1.8203-0.39062 2.4062-1.1719 0.58203-0.78125 0.875-1.8672 0.875-3.2656v-7.5625h4.8906v15.312h-4.8906v-2.2188c-0.74219 0.89844-1.5234 1.5586-2.3438 1.9844-0.82422 0.41406-1.7344 0.625-2.7344 0.625-1.7617 0-3.1055-0.53906-4.0312-1.625-0.92969-1.082-1.3906-2.6602-1.3906-4.7344z"/>
  </symbol>
  <symbol id="m" overflow="visible">
   <path d="m17.75-9.3281v9.3281h-4.9219v-7.1406c0-1.3203-0.03125-2.2344-0.09375-2.7344s-0.16797-0.86719-0.3125-1.1094c-0.1875-0.3125-0.44922-0.55469-0.78125-0.73438-0.32422-0.17578-0.69531-0.26562-1.1094-0.26562-1.0234 0-1.8242 0.39844-2.4062 1.1875-0.58594 0.78125-0.875 1.8711-0.875 3.2656v7.5312h-4.8906v-15.312h4.8906v2.2344c0.73828-0.88281 1.5195-1.5391 2.3438-1.9688 0.83203-0.42578 1.75-0.64062 2.75-0.64062 1.7695 0 3.1133 0.54688 4.0312 1.6406 0.91406 1.0859 1.375 2.6562 1.375 4.7188z"/>
  </symbol>
  <symbol id="l" overflow="visible">
   <path d="m2.5781-20.406h8.7344c2.5938 0 4.582 0.57812 5.9688 1.7344 1.3945 1.1484 2.0938 2.7891 2.0938 4.9219 0 2.1367-0.69922 3.7812-2.0938 4.9375-1.3867 1.1562-3.375 1.7344-5.9688 1.7344h-3.4844v7.0781h-5.25zm5.25 3.8125v5.7031h2.9219c1.0195 0 1.8047-0.25 2.3594-0.75 0.5625-0.5 0.84375-1.2031 0.84375-2.1094 0-0.91406-0.28125-1.6172-0.84375-2.1094-0.55469-0.48828-1.3398-0.73438-2.3594-0.73438z"/>
  </symbol>
  <symbol id="k" overflow="visible">
   <path d="m2.3594-15.312h4.8906v15.031c0 2.0508-0.49609 3.6172-1.4844 4.7031-0.98047 1.082-2.4062 1.625-4.2812 1.625h-2.4219v-3.2188h0.85938c0.92578 0 1.5625-0.21094 1.9062-0.625 0.35156-0.41797 0.53125-1.2461 0.53125-2.4844zm0-5.9688h4.8906v4h-4.8906z"/>
  </symbol>
  <symbol id="j" overflow="visible">
   <path d="m14.719-14.828v3.9844c-0.65625-0.45703-1.3242-0.79688-2-1.0156-0.66797-0.21875-1.3594-0.32812-2.0781-0.32812-1.3672 0-2.4336 0.40234-3.2031 1.2031-0.76172 0.79297-1.1406 1.9062-1.1406 3.3438 0 1.4297 0.37891 2.543 1.1406 3.3438 0.76953 0.79297 1.8359 1.1875 3.2031 1.1875 0.75781 0 1.4844-0.10938 2.1719-0.32812 0.6875-0.22656 1.3203-0.56641 1.9062-1.0156v4c-0.76172 0.28125-1.5391 0.48828-2.3281 0.625-0.78125 0.14453-1.5742 0.21875-2.375 0.21875-2.7617 0-4.9219-0.70703-6.4844-2.125-1.5547-1.4141-2.3281-3.3828-2.3281-5.9062 0-2.5312 0.77344-4.5039 2.3281-5.9219 1.5625-1.4141 3.7227-2.125 6.4844-2.125 0.80078 0 1.5938 0.074219 2.375 0.21875 0.78125 0.13672 1.5547 0.35156 2.3281 0.64062z"/>
  </symbol>
 </defs>
 <g>
  <path d="m563.64 286.95c38.078-19.77 61.375-47.152 53.367-63.504-8.2891-17.078-46.871-14.84-87.809 5.0977-11.535 5.6016-22.398 12.266-31.586 19.375-24.527-13.273-62.105-23.742-106.57-29.625 0.11328-0.11328 0.22266-0.28125 0.39062-0.39062 2.0156-2.0156 3.8633-4.0312 5.543-6.0469 0.054687-0.054687 0.054687-0.11328 0.11328-0.16797 1.6797-2.0703 3.2461-4.1445 4.5938-6.1602 0.11328-0.11328 0.16797-0.28125 0.28125-0.39063 1.3438-2.0156 2.4648-4.0312 3.4727-5.9922 0.11328-0.22266 0.28125-0.50391 0.39062-0.72656 0.95312-1.9609 1.7344-3.8633 2.4062-5.7695 0.11328-0.28125 0.22266-0.61719 0.33594-0.89453 0.61719-1.9023 1.0625-3.7539 1.3984-5.543 0.054688-0.28125 0.11328-0.61719 0.16797-0.89453 0.28125-1.8477 0.39062-3.6406 0.39062-5.375 0-0.28125 0-0.50391-0.054688-0.78516-0.054687-1.793-0.28125-3.5859-0.67187-5.2656-0.054688-0.16797-0.11328-0.33594-0.11328-0.50391-0.44922-1.793-1.0625-3.5273-1.8477-5.207-10.641-21.84-50.062-24.586-87.922-6.1602-1.6797 0.83984-3.3047 1.6797-4.9297 2.5195-0.55859 0.28125-1.0625 0.61719-1.625 0.89453-1.0625 0.55859-2.1289 1.1758-3.1367 1.793-0.61719 0.39062-1.2305 0.78516-1.8477 1.1758-0.89453 0.55859-1.8477 1.1211-2.7422 1.6797-0.67188 0.44922-1.2891 0.83984-1.9023 1.2891-0.83984 0.55859-1.6797 1.1211-2.4648 1.6797-0.61719 0.44922-1.2305 0.95312-1.9023 1.3984-0.78516 0.55859-1.5664 1.1211-2.2969 1.7344-0.61719 0.44922-1.1758 0.95312-1.793 1.457-0.72656 0.61719-1.457 1.1758-2.1836 1.793-0.55859 0.50391-1.1211 1.0078-1.6797 1.5117-0.67188 0.61719-1.3438 1.2305-2.0156 1.793-0.55859 0.50391-1.0625 1.0625-1.625 1.5664-0.61719 0.61719-1.2305 1.2305-1.8477 1.8477-0.50391 0.50391-1.0078 1.0625-1.5117 1.625-0.55859 0.61719-1.1758 1.2305-1.6797 1.9023-0.44922 0.55859-0.95312 1.1211-1.3984 1.625-0.50391 0.61719-1.0625 1.2891-1.5117 1.9023-0.44922 0.55859-0.83984 1.1211-1.2305 1.6797-0.44922 0.61719-0.95312 1.2891-1.3984 1.9023-0.39062 0.55859-0.78516 1.1211-1.1211 1.6797-0.39062 0.61719-0.83984 1.2891-1.2305 1.9023-0.33594 0.55859-0.67188 1.1211-1.0078 1.7344-0.33594 0.67188-0.72656 1.2891-1.0625 1.9609-0.28125 0.55859-0.55859 1.1211-0.83984 1.7344-0.28125 0.67188-0.61719 1.2891-0.83984 1.9609-0.22266 0.55859-0.44922 1.1211-0.67188 1.7344-0.22266 0.67187-0.44922 1.2891-0.67188 1.9023-0.16797 0.55859-0.39062 1.1211-0.50391 1.7344-0.054688 0.28125-0.16797 0.55859-0.22266 0.78516-93.691 4.7109-187.83 30.805-187.83 71.688 0 28.672 48.719 53.762 127.34 65.801-3.0234 12.152 7.9531 28.84 27.047 39.871 7.4492 4.3125 15.289 7.2227 22.68 8.5117 2.5195 0.44922 4.9844 0.72656 7.3359 0.78516 1.457 0 2.8008-0.054687 4.1445-0.16797 0.39062-0.054688 0.72656-0.11328 1.0625-0.11328 0.72656-0.11328 1.457-0.16797 2.1289-0.28125 0.28125-0.054687 0.55859-0.11328 0.89453-0.22266 5.7695-1.2305 10.191-4.0312 12.656-8.2891 5.2656-9.1289 0.39062-22.344-11.871-33.77 17.863 0.78516 35.336 0.89453 53.703 0.28125-10.137 14.113-12.824 28.223-7.4492 39.312 5.2656 10.863 17.527 17.359 34.496 18.367 1.5117 0.054688 2.9688 0.11328 4.5352 0.11328h0.22266 0.28125c15.289 0 32.48-4.3125 48.945-12.32 33.32-16.238 54.938-43.793 51.633-65.297 13.16-4.0898 24.754-8.7344 34.496-13.777 9.5742 7.6719 21.168 14.895 33.656 21 40.938 19.938 79.52 22.176 87.809 5.0977 8.0117-16.406-15.23-43.793-53.309-63.559zm48.328-61.098c4.8164 9.9102-7.8945 29.008-34.328 46.426-6.832-1.7344-13.047-1.5664-18.426 0.67187-3.2461 1.3438-5.2656 2.9688-7 4.4258-1.8477 1.5664-3.3594 2.7422-5.9922 3.3047-2.8008 0.55859-4.3125-0.16797-7.3359-1.625-2.4062-1.1758-5.375-2.6328-10.078-3.9766-5.4336-1.5117-9.3516-1.7344-12.824-1.8477-4.0898-0.16797-7.3359-0.33594-12.207-2.5742-0.39062-0.16797-0.72656-0.39062-1.1211-0.61719 2.5742 0.72656 5.4336 1.2305 8.457 1.2305 0.78516 0 1.625-0.054687 2.4648-0.11328 6.7773-0.55859 12.32-3.4141 14.391-4.6484 3.4727-2.0156 5.2656-3.8633 6.6641-5.375 1.3984-1.457 2.2383-2.3516 4.2578-2.9102 2.5742-0.72656 4.2578-0.11328 6.3828 0.61719 2.4062 0.83984 5.0977 1.793 9.0703 0.83984 4.8164-1.1211 9.1289-4.4805 13.105-10.137 3.3594-3.9766 4.6484-7 5.7109-9.4062 1.0078-2.4062 1.5664-3.6953 3.6953-5.0391 3.3047-2.0703 6.2734-2.4062 9.1289-2.7422 1.7344-0.16797 3.4141-0.39062 5.0391-0.89453 4.4258-1.457 7.9531-5.6562 10.527-12.488 5.1523 1.2227 8.8477 3.5742 10.418 6.8789zm-14.672-7.8398c-2.0156 5.0977-4.5938 8.3438-7.6172 9.2969-1.2305 0.39062-2.6328 0.55859-4.1992 0.72656-3.0234 0.33594-6.832 0.72656-10.977 3.3594-3.1914 2.0156-4.1445 4.2578-5.2656 6.8867-0.95312 2.2969-2.0703 4.8711-5.0391 8.3984l-0.39062 0.50391c-3.9766 5.7109-7.8945 7.6719-10.473 8.2891-2.8008 0.67188-4.5938 0-6.7188-0.72656-2.3516-0.83984-5.0391-1.793-8.9023-0.67188-3.1367 0.89453-4.5938 2.4648-6.1602 4.0898-1.2891 1.3438-2.8008 2.9102-5.7109 4.6484-1.793 1.0625-6.6641 3.5859-12.602 4.0898-4.5938 0.39062-8.7344-0.55859-12.152-1.9023h0.11328c6.9453-0.78516 12.375-3.0234 16.129-6.6094 3.5859-3.4727 4.3672-7.1133 5.0977-10.586 0.33594-1.625 0.72656-3.3594 1.3984-5.0391 1.2891-3.1914 3.5859-6.0469 6.7773-8.625 0.39062-0.16797 0.72656-0.39062 1.0625-0.55859 26.934-13.164 50.844-17.586 65.629-15.57zm-194.49-47.488c0.72656 1.5664 1.2891 3.1914 1.625 4.8711v0.11328c0.33594 1.6797 0.44922 3.4141 0.39062 5.207v0.22266c-0.054688 1.793-0.33594 3.5859-0.72656 5.4883 0 0.11328-0.054687 0.22266-0.054687 0.28125-0.44922 1.8477-1.0078 3.7539-1.793 5.6562-0.054688 0.11328-0.11328 0.28125-0.16797 0.39062-0.78516 1.9023-1.7344 3.8086-2.8008 5.7109-0.11328 0.16797-0.16797 0.33594-0.28125 0.50391-1.0625 1.9023-2.3516 3.8086-3.6953 5.6562-0.16797 0.22266-0.28125 0.39062-0.44922 0.61719-1.3984 1.8477-2.9102 3.6953-4.5938 5.543-0.22266 0.22266-0.39062 0.44922-0.61719 0.67188-1.6797 1.793-3.4727 3.6406-5.4336 5.375-0.16797 0.16797-0.33594 0.33594-0.50391 0.44922-6.8867-0.83984-13.887-1.5117-20.945-2.1289 1.1758-4.5938 2.9688-7.5586 5.375-8.5117 1.3438-0.55859 2.5742-0.39062 4.0898-0.16797 1.9023 0.28125 4.3125 0.61719 7.168-0.67188 4.5352-2.0703 7.8945-7.0547 8.1211-11.871 0.16797-4.2578-2.1289-7.2812-3.8086-9.4648-0.55859-0.72656-1.3984-1.8477-1.5117-1.9609 0.44922-0.33594 2.4062-0.28125 3.6953-0.22266 3.2461 0.054687 7.3359 0.16797 10.641-2.2969 3.0234-2.2969 4.5938-6.1602 4.8164-11.648 0.62109 0.73047 1.125 1.4023 1.4609 2.1875zm-127.79 42.785c0.61719-2.0156 1.457-4.0312 2.4062-6.0469 0.054687-0.11328 0.11328-0.22266 0.11328-0.33594 0.95312-1.9609 2.1289-3.9219 3.4141-5.8789 0.11328-0.22266 0.28125-0.44922 0.39062-0.61719 1.2891-1.9023 2.6875-3.7539 4.1992-5.6016 0.22266-0.28125 0.44922-0.55859 0.67188-0.78516 1.5117-1.793 3.1914-3.5859 4.9844-5.375 0.28125-0.28125 0.55859-0.55859 0.83984-0.83984 1.793-1.7344 3.6953-3.4727 5.7109-5.1523 0.33594-0.28125 0.61719-0.50391 0.95312-0.78516 2.0703-1.6797 4.1992-3.3047 6.4961-4.8711 0.28125-0.22266 0.61719-0.44922 0.95313-0.61719 2.3516-1.625 4.7617-3.1914 7.2812-4.6484 0.22266-0.11328 0.44922-0.22266 0.67187-0.39062 0.83984-0.50391 1.793-0.95312 2.6875-1.3984-1.9609 2.9102-4.0312 5.7695-6.2148 8.457-1.625 1.9609-3.0234 3.5859-4.1992 4.9297-3.2461 3.6953-5.4336 6.1055-6.3828 10.586-0.61719 2.7422-0.44922 4.8164-0.33594 6.6641 0.11328 2.1289 0.22266 3.7539-0.67188 6.1602-0.83984 2.2969-2.2969 4.3672-4.3125 6.2148-6.6094 0.11328-13.16 0.28125-19.656 0.55859-0.054687-0.11719-0.054687-0.17188 0-0.22656zm27.832-5.1523c1.2305-3.2461 1.0625-5.6016 0.95312-7.8945-0.11328-1.7344-0.22266-3.3594 0.28125-5.4883 0.72656-3.4141 2.2969-5.207 5.4336-8.7344 1.2305-1.3984 2.6875-3.0234 4.3125-5.0391 3.7539-4.5938 7.168-9.6328 10.305-14.895 11.145-5.207 22.289-8.5664 32.594-10.023-2.9688 1.7344-5.2656 3.9219-6.832 6.4414-0.67188 1.1211-1.1758 2.2383-1.6797 3.3047-0.95312 2.0703-1.7344 3.8633-3.9219 5.6562-2.1289 1.793-3.8633 2.0703-5.9922 2.4648-2.1836 0.39063-4.6484 0.83984-7.7266 2.8008-8.457 5.4336-10.641 15.625-10.695 15.68-0.67188 3.1914-0.44922 5.4336-0.22266 7.3906 0.22266 1.9609 0.39062 3.4727-0.39062 5.7695-0.95312 2.7422-2.8555 5.1523-5.6562 7.2812-2.8086 0.042968-5.5547-0.066407-8.4102-0.066407-1.625 0-3.3047 0.054688-4.9297 0.054688 1.0664-1.457 1.9609-3.0234 2.5781-4.7031zm20.383-1.1211c1.0625-3.1367 0.83984-5.4336 0.61719-7.6172-0.22266-1.793-0.39062-3.5273 0.16797-6.0469 0-0.11328 1.9023-8.5664 8.8477-13.047 2.3516-1.5117 4.2578-1.8477 6.2148-2.1836 2.4062-0.44922 4.9297-0.89453 7.9531-3.3594 2.9102-2.4062 4.0312-4.9297 5.0391-7.168 0.44922-0.95312 0.83984-1.9023 1.3984-2.8555 3.1367-5.0977 10.137-8.2305 20.777-9.4062 2.0703 0.16797 4.0312 0.39062 5.9375 0.72656-1.6797 5.8789-4.3672 10.246-8.1211 12.77-2.5742 1.7344-4.8164 2.2383-7.2227 2.8008-2.9102 0.67188-5.9375 1.3438-8.8477 4.3672-2.8008 2.9102-3.1914 5.7695-3.5273 8.2891-0.33594 2.3516-0.61719 4.4258-2.6875 6.832-1.8477 2.1289-3.6406 2.8008-5.6562 3.6406-2.1289 0.83984-4.5352 1.793-6.7773 4.4805-2.8555 3.4727-4.0312 8.2305-3.6953 14.168-4.6484-0.16797-9.2969-0.33594-14-0.44922 1.625-1.7969 2.8555-3.8125 3.582-5.9414zm14.672 6.6094c-0.39062-5.0391 0.50391-9.0156 2.6875-11.703 1.5117-1.8477 3.0781-2.4648 5.0977-3.2461 2.2383-0.89453 4.7617-1.9023 7.2812-4.7617 2.9102-3.3594 3.3594-6.4961 3.6953-9.0156 0.33594-2.2383 0.55859-4.0312 2.4062-5.9922 2.0703-2.1289 4.1445-2.5742 6.7773-3.1914 2.5195-0.55859 5.4336-1.1758 8.625-3.4141 4.5938-3.1367 7.8398-8.3438 9.8008-15.344 5.0977 1.3984 9.4062 3.5273 12.824 6.3828 0.55859 6.6641-0.39062 11.312-2.9688 13.273-2.1289 1.625-5.207 1.5117-8.0078 1.457-3.0234-0.11328-6.1602-0.16797-7.5039 2.4648-1.2305 2.3516 0.39062 4.5352 1.8477 6.4414 1.3984 1.9023 3.0234 4.0898 2.9688 6.832-0.11328 3.1914-2.5742 6.832-5.6562 8.2305-1.7344 0.78516-3.1367 0.61719-4.8711 0.33594-1.793-0.28125-3.8633-0.55859-6.2734 0.44922-3.8633 1.625-6.4414 5.6562-7.9531 12.098-6.8867-0.57031-13.777-0.96094-20.777-1.2969zm-80.078 143.08c2.4648 0.16797 4.8711 0.33594 7.3359 0.50391 13.777 10.305 20.777 23.742 16.297 31.473-0.55859 0.95313-1.3438 1.793-2.1836 2.5195-4.1445-1.9609-7.2227-4.4805-8.9023-7.6172-0.95312-1.6797-1.2305-3.0234-1.5664-4.4805-0.44922-1.9023-0.95313-4.0898-2.8555-6.9453-1.9023-2.8008-3.7539-4.1445-5.2656-5.2656-1.3984-1.0625-2.3516-1.7344-2.9688-3.2461-0.78516-1.957-0.67578-4.2539 0.10938-6.9414zm-3.9766 8.457c1.0625 2.5742 2.7422 3.8086 4.3125 5.0391 1.3984 1.0078 2.8008 2.0703 4.3125 4.2578 1.5117 2.1836 1.8477 3.7539 2.2383 5.543 0.33594 1.5664 0.78516 3.4141 2.0156 5.6016 1.793 3.1914 4.5938 5.8242 8.2891 8.0078-2.5742 0.95312-5.7109 1.3984-9.3516 1.2891-2.0703-0.054687-4.2578-0.28125-6.4961-0.67187-1.2305-0.22266-2.5195-0.61719-3.8086-0.95313 1.1758-4.8164 0.95312-9.0156-0.83984-12.32-1.1758-2.1836-2.6328-3.3047-3.9766-4.4258-1.3438-1.0625-2.6328-2.1289-3.8633-4.3125-1.625-2.9102-1.9023-5.6016-2.2383-8.793-0.28125-2.6328-0.16797-5.207 0.16797-7.8398 3.0234 0.28125 6.0469 0.55859 9.0703 0.78516-0.89453 3.3047-0.89453 6.2734 0.16797 8.793zm-13.664-1.1758c0.33594 3.3047 0.72656 6.7188 2.7422 10.359 1.625 2.9102 3.4727 4.3672 4.9297 5.543 1.1758 0.95312 2.1289 1.6797 2.9102 3.1367 1.2891 2.3516 1.3984 5.4336 0.50391 9.1289-4.2578-1.3984-8.5117-3.3047-12.711-5.7109-0.61719-0.39062-1.2305-0.78516-1.9023-1.1758 0.89453-4.1445 0.67188-7.8398-0.83984-10.922-1.5117-3.1914-3.9219-5.0391-5.8789-6.5508-1.625-1.2305-2.5742-2.0703-2.5195-2.7422 0-0.44922 0.39062-0.83984 1.2891-1.625 1.1758-1.0625 2.7422-2.4648 3.3047-5.0391 0.28125-1.2891 0.16797-2.6328-0.16797-3.9766 2.8008 0.33594 5.6016 0.61719 8.457 0.89453-0.28516 2.8555-0.39844 5.7695-0.11719 8.6797zm-12.992-10.078c0.67188 1.3438 0.95312 2.5742 0.72656 3.6406-0.22266 1.1211-0.89453 1.793-1.9609 2.7422-1.1211 1.0078-2.5742 2.2969-2.6875 4.5352-0.16797 2.9688 2.0156 4.6484 4.1445 6.3281 1.7344 1.3438 3.5859 2.8008 4.7031 5.0977 0.89453 1.8477 1.1758 4.0898 0.83984 6.6094-1.0078-0.72656-1.9609-1.457-2.9102-2.1836-0.33594-0.22266-0.61719-0.50391-0.95312-0.72656-10.977-9.0703-17.191-20.16-14.84-27.664 4.2578 0.5 8.5703 1.0586 12.938 1.6211zm227.98-13.832c2.0156 18.312-16.801 41.719-45.641 56.727 0.054687-2.8555 0.72656-5.375 2.0703-7.3906 1.9609-3.0234 4.9844-4.5352 7.8398-5.9375 3.1367-1.5117 6.3281-3.1367 6.9453-6.7188 0.55859-3.3594-1.625-5.8789-3.1914-7.7852-0.61719-0.72656-1.625-1.9023-1.625-2.2969 0.44922-0.55859 3.5859-0.67188 5.4883-0.72656 4.5352-0.16797 10.191-0.33594 14.168-3.9219 4.0312-3.6953 5.2656-10.023 3.8086-19.266 3.3594-0.83594 6.832-1.7344 10.137-2.6836zm-14.391 3.8047c1.1211 7.3359 0.39062 12.543-2.4648 15.121-2.8008 2.5742-7.3906 2.6875-11.426 2.8008-4.1445 0.11328-8.0625 0.22266-9.2969 3.4727-0.95312 2.5742 0.89453 4.7617 2.3516 6.4961 1.5117 1.793 2.4648 3.0234 2.2383 4.3125-0.22266 1.3984-1.9023 2.2969-4.6484 3.6406-3.0781 1.5117-6.8867 3.4141-9.5195 7.3906-2.0703 3.1914-2.9102 7.168-2.6875 11.762-7.7266 3.6953-15.625 6.4961-23.297 8.3984 3.7539-3.1367 6.6094-6.7188 8.3984-10.641 1.9609-4.4258 2.2383-8.1758 2.5195-11.535 0.28125-3.9766 0.55859-7.1133 3.3047-10.695 1.9023-2.4062 3.5859-3.3047 5.8242-4.4805s4.7617-2.4648 7.7852-5.543c4.1445-4.1445 7.0547-9.5195 8.8477-15.848 7.6211-1.4023 15.012-2.9727 22.07-4.6523zm-33.883 17.531c-2.5742 2.5742-4.7031 3.6953-6.7773 4.7617-2.3516 1.2305-4.7031 2.4648-7.168 5.6016-3.5859 4.5938-3.8633 8.8477-4.1992 12.992-0.22266 3.1367-0.50391 6.3828-2.1289 10.137-2.5742 5.7695-7.7852 10.586-15.289 14.449-3.2461 0.44922-6.4414 0.72656-9.5742 0.83984-1.8477 0.054688-3.6953 0-5.543-0.11328-5.8789-0.33594-11.031-1.3984-15.457-3.1367 1.2305-2.0703 2.5742-4.0898 4.1445-5.8789 2.7422-3.1367 8.457-9.6875 13.719-8.793 1.0625 0.16797 1.457 0.50391 2.1836 1.0625 0.89453 0.72656 2.0156 1.625 4.1445 2.0156 3.6953 0.67188 8.0078-0.50391 11.648-3.1914 3.1367-2.2969 5.1523-5.375 5.4883-8.3438 0.39062-3.1914-1.1758-5.2656-2.4062-6.9453-1.1758-1.5664-1.793-2.4648-1.625-3.9766 0.16797-1.6797 1.2891-2.7422 3.5859-4.7031 1.9609-1.6797 4.3672-3.7539 6.7188-7.168 1.7344-2.5195 3.0781-5.3203 4.1445-8.2891 7.3359-1.0078 14.504-2.0703 21.449-3.3047-1.457 4.7578-3.8633 8.7891-7.0586 11.984zm-21.781-2.8008c-2.0703 2.9688-4.1992 4.7617-6.0469 6.3828-2.4648 2.1289-4.6484 3.9766-4.9844 7.3906-0.33594 3.2461 1.1758 5.3203 2.4648 7 1.1211 1.5117 1.793 2.4648 1.625 3.9219-0.22266 1.8477-1.6797 3.8633-3.8086 5.4883-2.6875 1.9609-5.8789 2.9102-8.3984 2.4648-1.1211-0.22266-1.625-0.55859-2.3516-1.1758-0.89453-0.72656-2.0156-1.5664-4.1445-1.9609-7.4492-1.2305-14.055 6.2148-17.586 10.191-1.8477 2.0703-3.4141 4.4258-4.8164 6.8867-4.7031-2.5195-8.2305-5.9375-10.359-10.137 2.8008-4.0898 6.0469-7 9.7422-8.6797 2.7422-1.1758 5.1523-1.5664 7.3359-1.8477 3.1367-0.44922 6.1055-0.83984 8.2305-3.6953 2.0156-2.6875 1.6797-5.4336 1.3984-7.6719-0.28125-2.2383-0.39062-3.5273 0.72656-4.9844 0.95312-1.2305 2.1289-1.625 4.0898-2.2383 2.1289-0.61719 4.7617-1.3984 7.3359-3.9219 1.793-1.7344 2.9688-4.0312 3.9219-6.6094 6.3281-0.61719 12.488-1.2891 18.594-2.0703-0.95312 1.8477-1.8516 3.6406-2.9688 5.2656zm-22.57 0.44531c-1.8477 1.793-3.6406 2.3516-5.543 2.9102-2.0703 0.61719-4.4258 1.3438-6.2734 3.7539-2.1289 2.8555-1.793 5.7109-1.5117 8.0078 0.28125 2.1289 0.33594 3.3594-0.61719 4.6484-1.0625 1.3984-2.5195 1.6797-5.4336 2.0703-2.2969 0.33594-5.207 0.72656-8.457 2.1836-3.6406 1.625-6.8867 4.2578-9.7422 7.7266-2.1289-9.4062 1.7344-20.945 11.199-32.594 9.7422-0.44922 19.32-1.0625 28.672-1.9023-0.61328 1.1797-1.3398 2.3008-2.293 3.1953zm135.13-40.207-1.457-1.1758-1.6797 0.89453c-10.414 5.6016-23.184 10.695-37.969 15.121l-2.5742 0.78516v0.054688c-32.93 9.5195-73.473 15.625-117.66 17.527l-2.2383 0.11328c-22.961 0.95312-44.801 0.78516-66.922-0.44922h-0.054687l-0.83984-0.054687c-18.48-1.0078-36.512-2.8008-53.594-5.3203l-0.83984-0.11328c-16.07-2.4062-30.91-5.3203-44.352-8.7344 3.5859-3.8633 7.8945-9.9688 10.078-18.312 1.457 1.6797 3.3594 3.5273 6.1602 5.4883 6.3281 4.4258 15.289 8.457 25.145 11.312 8.793 2.5195 17.473 3.9219 24.695 3.9219 0.89453 0 1.7344 0 2.5742-0.054687 11.199-0.55859 14.617-4.4258 15.566-7.6719 0.95312-3.2461 0.11328-8.3438-9.0703-14.785-6.3281-4.4258-15.289-8.457-25.145-11.312-9.8555-2.8555-19.543-4.1992-27.273-3.8633-5.4883 0.28125-9.0703 1.3438-11.48 2.7422-0.61719-6.7188-2.7422-12.098-4.3125-15.23-0.67188-1.3984-2.3516-1.9609-3.7539-1.2305-1.3984 0.67188-1.9609 2.3516-1.2305 3.7539 2.0156 4.0312 5.1523 12.32 3.4141 22.512-1.8477 10.809-8.1758 17.863-11.648 21.055-39.031-10.641-65.016-25.199-72.352-41.105 2.3516 1.1758 4.6484 2.3516 7.0547 3.3594 5.543 2.3516 11.367 4.3125 17.246 5.7695 0.22266 0.054687 0.44922 0.054687 0.67188 0.054687 1.2891 0 2.4062-0.83984 2.7422-2.1289 0.39062-1.5117-0.55859-3.0234-2.0703-3.3594-5.6016-1.3438-11.09-3.1914-16.352-5.4336-3.6953-1.5664-7.3906-3.4141-10.922-5.4336-0.11328-0.054688-0.16797-0.054688-0.28125-0.11328 0.015625-0.61328-0.15234-1.2305-0.15234-1.8438 0-32.703 79.352-61.266 184.63-66.359 11.141-0.5625 22.512-0.84375 33.766-0.84375 27.215 0 53.93 1.5664 79.297 4.6484 47.32 5.7695 87.137 16.633 112.05 30.633l1.625 0.89453 1.457-1.1758c6.2734-4.9844 13.496-9.7422 21.168-14.113-0.33594 0.61719-0.67188 1.2305-0.89453 1.8477-0.78516 2.0156-1.2305 3.9219-1.625 5.7109-0.72656 3.3047-1.2891 5.8789-3.9219 8.457-2.0703 2.0156-6.1602 4.6484-13.664 5.4883-1.6797 0.16797-3.3594 0.16797-5.0391 0.054688-1.3984-1.0625-3.1914-1.5664-4.9844-0.95312-25.984 8.1211-46.762 9.4062-61.824 3.8633l-0.89453-0.33594c-3.8633-1.457-11.871-4.4805-22.961-5.8242-13.047-1.5664-23.129 0.39062-29.121 1.625l-2.0703 0.39062c-16.91 3.1367-28.617-0.55859-42.113-4.8711-14.727-4.7031-31.414-9.9688-56.336-5.375-4.7617 0.89453-6.7188 1.5664-8.7344 2.2969-1.8477 0.67188-3.9766 1.3984-9.6328 2.6328-23.238 5.0977-47.207 5.543-71.176 1.3984-3.0234-0.50391-5.9375 1.5117-6.4961 4.5352-0.50391 3.0234 1.5117 5.9375 4.5352 6.4961 25.426 4.4258 50.793 3.9219 75.488-1.5117 6.2734-1.3984 8.8477-2.2383 10.922-2.9688 1.8477-0.61719 3.1914-1.1211 7.1133-1.8477 22.176-4.1445 36.734 0.50391 50.902 5.0391 13.719 4.3672 27.832 8.8477 47.543 5.207l2.1836-0.44922c5.7109-1.1211 14.281-2.8008 25.594-1.457 9.7422 1.1758 16.633 3.7539 20.328 5.1523l0.95312 0.33594c7.3359 2.7422 15.68 4.0898 25.031 4.0898 12.879 0 27.609-2.5742 44.016-7.7266 0.33594-0.11328 0.61719-0.33594 0.95312-0.50391 2.2383 1.625 4.5938 3.1367 7.0547 4.2578 5.6016 2.5742 9.5742 2.8008 13.777 2.9688 3.4141 0.16797 6.8867 0.33594 11.871 1.7344 4.4219 1.2383 7.2227 2.6367 9.4609 3.7578 2.5195 1.2305 4.5938 2.2383 7.3906 2.2383 0.78516 0 1.625-0.054687 2.5742-0.28125 3.6953-0.72656 5.8242-2.4648 7.8398-4.1992 1.625-1.3438 3.2461-2.6875 5.9375-3.8086 3.4727-1.3984 7.3359-1.793 11.648-1.2891-4.9844 3.0234-10.359 5.9922-16.129 8.8477l-5.6562 2.5195 5.7109 2.6875c18.762 9.1289 33.207 19.656 42.895 29.566-3.9766 0.11328-7.168-0.72656-9.5195-2.5742-1.1758-0.95312-1.625-1.7344-2.2383-2.7422-0.72656-1.2305-1.5117-2.6328-3.5273-4.2578-3.3047-2.7422-6.2148-3.1367-9.0156-3.4727-2.2969-0.28125-4.6484-0.61719-7.7266-2.3516-2.4648-1.3984-3.4141-2.6328-4.4805-3.9219-1.2305-1.5117-2.6328-3.2461-5.9922-4.7617-3.1914-1.457-5.4336-1.5117-7.3906-1.625-1.793-0.054688-3.3047-0.11328-5.6562-1.1211-4.0312-1.625-6.1602-4.0898-8.2305-6.4414-0.72656-0.83984-1.457-1.625-2.1836-2.3516-6.6094-6.3828-18.258-7.4492-35.391-3.4141-1.5117-0.89453-3.3594-1.1758-5.0977-0.39062-18.594 8.2305-35.223 10.473-49.559 6.7188-1.7344-0.44922-3.4727-1.0078-5.2656-1.5664-5.207-1.625-11.09-3.4727-19.711-4.4258-13.887-1.5664-24.191 0.33594-31.023 1.5664l-2.2383 0.39062c-18.367 3.1914-31.586-0.72656-45.586-4.8711-15.734-4.6484-33.543-9.9102-60.09-5.3203-5.0977 0.89453-7.1133 1.5664-9.2969 2.2383-2.0156 0.67188-4.3125 1.3984-10.414 2.6328-25.031 5.0977-50.848 5.6016-76.664 1.3984-3.0234-0.50391-5.9375 1.5664-6.4414 4.6484-0.50391 3.0234 1.5664 5.9375 4.6484 6.4414 27.16 4.3672 54.32 3.8633 80.695-1.457 6.7188-1.3438 9.4648-2.2383 11.648-2.9688 1.9023-0.61719 3.4727-1.1211 7.7266-1.8477 23.969-4.1445 39.762 0.50391 54.992 5.0391 14.617 4.3125 29.68 8.793 50.68 5.1523l2.3516-0.44922c6.1602-1.1211 15.457-2.8555 27.719-1.457 7.5586 0.83984 12.711 2.4648 17.641 3.9766 2.0156 0.61719 3.8633 1.2305 5.7695 1.6797 5.375 1.3984 11.031 2.1289 16.855 2.1289 12.434 0 25.816-3.1367 40.039-9.4062 3.7539 4.1445 5.7109 8.2891 5.7695 12.375 0 1.625-0.28125 2.8008-0.55859 3.9219-0.39062 1.625-0.78516 3.3594 0.054688 5.6016 1.7344 4.5938 6.3281 5.7695 11.199 7 3.6953 0.95312 7.5039 1.9023 10.695 4.4258 4.2578 3.3047 6.7188 9.1836 7.6172 17.246-0.16797-0.054688-0.33594-0.16797-0.44922-0.22266-12.652-6.0938-24.414-13.543-33.934-21.383zm-308.39-10.918c3.0234 3.0234 6.3828 5.3203 10.078 6.7773 3.5859 1.3984 6.1602 1.5117 8.625 1.625 2.2383 0.11328 4.5352 0.22266 8.0625 1.2305 3.3047 1.0078 5.0977 2.0703 6.9453 3.1914 1.9609 1.1758 3.9766 2.4062 7.5586 3.5273 3.8086 1.1758 7.7852 1.793 11.871 1.793 0.61719 0 1.2891-0.054688 1.9023-0.11328 1.0625 1.1758 1.6797 2.1836 2.0156 3.0234-3.5273-0.89453-7.0547-1.625-10.641-1.9023-3.8086-0.28125-6.5508-0.11328-8.793 0-3.0234 0.16797-5.0391 0.28125-7.9531-0.78516-2.3516-0.83984-3.3047-1.7344-4.5352-2.8555-1.3984-1.2305-2.9102-2.6875-6.3828-4.0312-3.7539-1.5117-6.4414-1.625-8.793-1.7344-1.9023-0.11328-3.5273-0.16797-5.7695-0.89453-3.7539-1.2305-7.1133-3.8633-10.137-7.7266 1.3516-0.51172 3.3125-0.90234 5.9453-1.125zm6.3281-0.058593c6.1602 0.28125 13.215 1.457 20.441 3.5859 9.0703 2.6328 17.246 6.2734 23.07 10.246-2.5195-0.22266-4.9844-0.67188-7.3359-1.3984-3.1367-0.95312-4.8164-2.0156-6.6094-3.0781-2.0156-1.2305-4.0898-2.4648-7.9531-3.6406-3.9766-1.1758-6.7188-1.3438-9.0703-1.3984-2.4062-0.11328-4.3125-0.16797-7.2227-1.3438-1.9062-0.78906-3.6406-1.7383-5.3203-2.9727zm-15.512 3.9766c3.5273 4.3672 7.5039 7.4492 11.984 8.9609 2.7422 0.89453 4.8711 1.0078 6.8867 1.1211 2.2383 0.11328 4.3125 0.22266 7.3906 1.457 2.8008 1.1211 3.9219 2.1836 5.1523 3.2461 1.2891 1.1758 2.8008 2.5195 5.8789 3.6406 3.7539 1.3984 6.3828 1.2305 9.6875 1.0078 2.1836-0.11328 4.7031-0.28125 8.2305 0 2.8555 0.22266 5.6562 0.72656 8.5117 1.3984-1.7344 0.72656-4.2578 1.2891-7.7852 1.5117-7.1133 0.33594-16.184-0.95312-25.48-3.6406-9.2969-2.6875-17.641-6.3828-23.465-10.527-4.9766-3.4727-7.0508-6.4961-6.9922-8.1758zm356.5 30.746c-0.72656-10.586-3.8633-18.199-9.5195-22.625-3.8633-3.0234-8.3438-4.1445-12.266-5.1523-4.5352-1.1758-7.3906-2.0156-8.2891-4.4258-0.39062-1.0078-0.22266-1.625 0.11328-3.1367 0.28125-1.2305 0.67188-2.8008 0.67188-4.9844-0.054688-5.2656-2.4648-10.414-7-15.398 0.054687-0.16797 0.054687-0.33594 0.11328-0.44922 7.6719 1.8477 14 5.0391 18.703 9.6328 3.6953 3.6406 7.3359 8.9609 7.7852 9.5195 2.7422 4.0312 4.1992 6.9453 5.3203 9.0703 1.5664 3.0781 2.6328 5.0977 5.4336 6.1602 3.6953 1.3438 6.7773-0.28125 9.1836-1.625 2.0703-1.1211 3.8633-2.1289 5.8242-1.5117 2.1289 0.61719 2.9688 2.5195 4.3125 6.1055 1.3438 3.5273 2.9688 7.8945 7.168 11.871 3.8633 3.6953 7.3906 4.5938 12.207 5.8789 3.0234 0.78516 6.832 1.793 11.871 3.6953 5.8789 2.2383 11.648 5.0977 17.191 8.457-12.211 5.4922-38.195 2.8047-68.824-11.082zm75.375 5.4297c-0.55859 1.1758-1.5117 2.2383-2.5742 3.1914-6.3281-3.9766-12.938-7.3359-19.656-9.9102-5.2656-2.0156-9.1836-3.0234-12.32-3.8633-4.7031-1.2305-7.3359-1.9023-10.414-4.8164-3.4727-3.3594-4.8711-7.0547-6.1055-10.305-1.457-3.8086-2.8008-7.4492-7.0547-8.625-3.6406-1.0625-6.6094 0.55859-9.0156 1.9023-2.3516 1.2891-3.9219 2.0703-5.7109 1.3984-1.2305-0.44922-1.6797-1.2305-3.1914-4.1445-1.1211-2.2383-2.6875-5.2656-5.543-9.5195-0.72656-1.0078-4.4258-6.3828-8.2891-10.191-4.6484-4.5938-10.695-7.8945-17.809-10.023 12.543-2.2383 21.391-1.1211 26.152 3.4727 0.67188 0.61719 1.2891 1.3438 1.9023 2.0703 2.1836 2.4648 4.8711 5.543 9.8008 7.5586 3.0234 1.2305 5.1523 1.3438 7.0547 1.3984 1.8477 0.054688 3.4141 0.16797 5.8242 1.2305 2.4648 1.1211 3.3594 2.2383 4.4805 3.5859 1.1758 1.457 2.5195 3.1367 5.6562 4.9297 3.7539 2.1289 6.6641 2.5195 9.2383 2.8555s4.4805 0.55859 6.832 2.5195c1.3984 1.1758 1.9609 2.0703 2.5742 3.1367 0.67188 1.1758 1.457 2.4648 3.2461 3.9219 2.9688 2.3516 6.7773 3.5859 11.48 3.5859 1.3438 0 2.8008-0.11328 4.2578-0.33594 8.6797 9.9688 12.039 19.098 9.1836 24.977z"/>
  <path d="m135.8 257.6c-11.594 0-21 9.4062-21 21s9.4062 21 21 21 21-9.4062 21-21-9.4102-21-21-21zm0 36.398c-8.5117 0-15.402-6.8867-15.402-15.398 0-8.5117 6.8906-15.402 15.402-15.402s15.398 6.8867 15.398 15.398c0 8.5156-6.8867 15.402-15.398 15.402z"/>
  <path d="m147.17 278.6c0 6.2773-5.0898 11.367-11.367 11.367-6.2773 0-11.367-5.0898-11.367-11.367 0-6.2812 5.0898-11.371 11.367-11.371 6.2773 0 11.367 5.0898 11.367 11.371"/>
  <use x="70" y="644" xlink:href="#u"/>
  <use x="90.546875" y="644" xlink:href="#c"/>
  <use x="104.355469" y="644" xlink:href="#b"/>
  <use x="123.347656" y="644" xlink:href="#e"/>
  <use x="142.242188" y="644" xlink:href="#a"/>
  <use x="155.625" y="644" xlink:href="#b"/>
  <use x="174.617188" y="644" xlink:href="#i"/>
  <use x="204.40625" y="644" xlink:href="#h"/>
  <use x="224.449219" y="644" xlink:href="#g"/>
  <use x="252.449219" y="644" xlink:href="#f"/>
  <use x="270.292969" y="644" xlink:href="#t"/>
  <use x="289.28125" y="644" xlink:href="#e"/>
  <use x="317.925781" y="644" xlink:href="#f"/>
  <use x="335.765625" y="644" xlink:href="#d"/>
  <use x="355.003906" y="644" xlink:href="#c"/>
  <use x="368.8125" y="644" xlink:href="#a"/>
  <use x="382.195312" y="644" xlink:href="#e"/>
  <use x="401.09375" y="644" xlink:href="#s"/>
  <use x="70" y="672" xlink:href="#r"/>
  <use x="82.183594" y="672" xlink:href="#c"/>
  <use x="95.992188" y="672" xlink:href="#d"/>
  <use x="115.226562" y="672" xlink:href="#q"/>
  <use x="154.152344" y="672" xlink:href="#a"/>
  <use x="167.535156" y="672" xlink:href="#p"/>
  <use x="187.46875" y="672" xlink:href="#b"/>
  <use x="216.207031" y="672" xlink:href="#o"/>
  <use x="239.640625" y="672" xlink:href="#d"/>
  <use x="258.878906" y="672" xlink:href="#n"/>
  <use x="278.8125" y="672" xlink:href="#m"/>
  <use x="308.492188" y="672" xlink:href="#l"/>
  <use x="329.015625" y="672" xlink:href="#c"/>
  <use x="342.820312" y="672" xlink:href="#d"/>
  <use x="362.058594" y="672" xlink:href="#k"/>
  <use x="371.65625" y="672" xlink:href="#b"/>
  <use x="390.648438" y="672" xlink:href="#j"/>
  <use x="407.242188" y="672" xlink:href="#a"/>
 </g>
</svg>
